<mxfile host="Electron" agent="Mozilla/5.0 (Macintosh; Intel Mac OS X 10_15_7) AppleWebKit/537.36 (KHTML, like Gecko) draw.io/24.7.17 Chrome/128.0.6613.36 Electron/32.0.1 Safari/537.36" version="24.7.17">
  <diagram name="Page-1" id="9dKbvcgsuSpWYdTZ86e-">
    <mxGraphModel dx="4558" dy="2706" grid="1" gridSize="10" guides="1" tooltips="1" connect="1" arrows="1" fold="1" page="1" pageScale="1" pageWidth="827" pageHeight="1169" math="0" shadow="0">
      <root>
        <mxCell id="0" />
        <mxCell id="1" parent="0" />
        <mxCell id="PeHLGWzFGyEWrabVDmBg-1088" value="" style="endArrow=none;html=1;rounded=0;fillColor=#0050ef;strokeColor=#001DBC;entryX=1;entryY=0.25;entryDx=0;entryDy=0;exitX=0.414;exitY=0.976;exitDx=0;exitDy=0;exitPerimeter=0;" edge="1" parent="1">
          <mxGeometry width="50" height="50" relative="1" as="geometry">
            <mxPoint x="3106" y="440" as="sourcePoint" />
            <mxPoint x="2990" y="440" as="targetPoint" />
          </mxGeometry>
        </mxCell>
        <mxCell id="PeHLGWzFGyEWrabVDmBg-1091" value="//" style="edgeLabel;html=1;align=center;verticalAlign=middle;resizable=0;points=[];" vertex="1" connectable="0" parent="PeHLGWzFGyEWrabVDmBg-1088">
          <mxGeometry x="-0.4386" relative="1" as="geometry">
            <mxPoint as="offset" />
          </mxGeometry>
        </mxCell>
        <mxCell id="PeHLGWzFGyEWrabVDmBg-1089" value="" style="shape=waypoint;sketch=0;fillStyle=solid;size=6;pointerEvents=1;points=[];fillColor=#0050ef;resizable=0;rotatable=0;perimeter=centerPerimeter;snapToPoint=1;strokeColor=#001DBC;rotation=-90;container=0;fontColor=#ffffff;" vertex="1" parent="1">
          <mxGeometry x="3097" y="430" width="20" height="20" as="geometry" />
        </mxCell>
        <mxCell id="PeHLGWzFGyEWrabVDmBg-1031" value="//" style="endArrow=none;html=1;rounded=0;fillColor=#e1d5e7;strokeColor=#9673a6;" edge="1" parent="1" source="PeHLGWzFGyEWrabVDmBg-1032">
          <mxGeometry width="50" height="50" relative="1" as="geometry">
            <mxPoint x="18" y="370" as="sourcePoint" />
            <mxPoint x="48" y="370" as="targetPoint" />
          </mxGeometry>
        </mxCell>
        <mxCell id="PeHLGWzFGyEWrabVDmBg-1032" value="" style="shape=waypoint;sketch=0;fillStyle=solid;size=6;pointerEvents=1;points=[];fillColor=#e1d5e7;resizable=0;rotatable=0;perimeter=centerPerimeter;snapToPoint=1;strokeColor=#9673a6;rotation=90;container=0;" vertex="1" parent="1">
          <mxGeometry x="-10" y="360" width="20" height="20" as="geometry" />
        </mxCell>
        <mxCell id="PeHLGWzFGyEWrabVDmBg-1025" value="" style="endArrow=none;html=1;rounded=0;fillColor=#e3c800;strokeColor=#B09500;" edge="1" parent="1" source="PeHLGWzFGyEWrabVDmBg-1026">
          <mxGeometry width="50" height="50" relative="1" as="geometry">
            <mxPoint x="18" y="279" as="sourcePoint" />
            <mxPoint x="48" y="279" as="targetPoint" />
            <Array as="points">
              <mxPoint x="29" y="279" />
            </Array>
          </mxGeometry>
        </mxCell>
        <mxCell id="PeHLGWzFGyEWrabVDmBg-1028" value="" style="endArrow=none;html=1;rounded=0;fillColor=#a0522d;strokeColor=#6D1F00;" edge="1" parent="1" source="PeHLGWzFGyEWrabVDmBg-1029">
          <mxGeometry width="50" height="50" relative="1" as="geometry">
            <mxPoint x="18" y="327.5" as="sourcePoint" />
            <mxPoint x="48" y="327.5" as="targetPoint" />
          </mxGeometry>
        </mxCell>
        <mxCell id="PeHLGWzFGyEWrabVDmBg-1022" value="" style="endArrow=none;html=1;rounded=0;fillColor=#60a917;strokeColor=#2D7600;" edge="1" parent="1" source="PeHLGWzFGyEWrabVDmBg-1023">
          <mxGeometry width="50" height="50" relative="1" as="geometry">
            <mxPoint x="18" y="230" as="sourcePoint" />
            <mxPoint x="48" y="230" as="targetPoint" />
          </mxGeometry>
        </mxCell>
        <mxCell id="PeHLGWzFGyEWrabVDmBg-1023" value="" style="shape=waypoint;sketch=0;fillStyle=solid;size=6;pointerEvents=1;points=[];fillColor=#60a917;resizable=0;rotatable=0;perimeter=centerPerimeter;snapToPoint=1;strokeColor=#2D7600;rotation=90;container=0;fontColor=#ffffff;" vertex="1" parent="1">
          <mxGeometry x="-10" y="220" width="20" height="20" as="geometry" />
        </mxCell>
        <mxCell id="PeHLGWzFGyEWrabVDmBg-1004" value="" style="endArrow=none;html=1;rounded=0;fillColor=#e51400;strokeColor=#B20000;" edge="1" parent="1" source="PeHLGWzFGyEWrabVDmBg-1005">
          <mxGeometry width="50" height="50" relative="1" as="geometry">
            <mxPoint x="19" y="179" as="sourcePoint" />
            <mxPoint x="49" y="179" as="targetPoint" />
          </mxGeometry>
        </mxCell>
        <mxCell id="PeHLGWzFGyEWrabVDmBg-1002" value="" style="rounded=0;whiteSpace=wrap;html=1;movable=0;resizable=0;rotatable=0;deletable=0;editable=0;locked=1;connectable=0;" vertex="1" parent="1">
          <mxGeometry x="41" y="120" width="2999" height="720" as="geometry" />
        </mxCell>
        <mxCell id="PeHLGWzFGyEWrabVDmBg-155" value="" style="shape=waypoint;sketch=0;fillStyle=solid;size=6;pointerEvents=1;points=[];fillColor=#a0522d;resizable=1;rotatable=1;perimeter=centerPerimeter;snapToPoint=1;strokeColor=#6D1F00;movable=1;deletable=1;editable=1;locked=0;connectable=1;rotation=-180;container=0;fontColor=#ffffff;" vertex="1" parent="1">
          <mxGeometry x="118.33" y="170" width="20" height="20" as="geometry" />
        </mxCell>
        <mxCell id="PeHLGWzFGyEWrabVDmBg-679" value="" style="shape=waypoint;sketch=0;fillStyle=solid;size=6;pointerEvents=1;points=[];fillColor=#a0522d;resizable=1;rotatable=1;perimeter=centerPerimeter;snapToPoint=1;strokeColor=#6D1F00;movable=1;deletable=1;editable=1;locked=0;connectable=1;rotation=-180;container=0;fontColor=#ffffff;" vertex="1" parent="1">
          <mxGeometry x="618.33" y="170" width="20" height="20" as="geometry" />
        </mxCell>
        <mxCell id="PeHLGWzFGyEWrabVDmBg-761" value="" style="shape=waypoint;sketch=0;fillStyle=solid;size=6;pointerEvents=1;points=[];fillColor=#a0522d;resizable=1;rotatable=1;perimeter=centerPerimeter;snapToPoint=1;strokeColor=#6D1F00;movable=1;deletable=1;editable=1;locked=0;connectable=1;rotation=-180;container=0;fontColor=#ffffff;" vertex="1" parent="1">
          <mxGeometry x="1118.33" y="170" width="20" height="20" as="geometry" />
        </mxCell>
        <mxCell id="PeHLGWzFGyEWrabVDmBg-925" value="" style="shape=waypoint;sketch=0;fillStyle=solid;size=6;pointerEvents=1;points=[];fillColor=#a0522d;resizable=1;rotatable=1;perimeter=centerPerimeter;snapToPoint=1;strokeColor=#6D1F00;movable=1;deletable=1;editable=1;locked=0;connectable=1;rotation=-180;container=0;fontColor=#ffffff;" vertex="1" parent="1">
          <mxGeometry x="2128.33" y="170" width="20" height="20" as="geometry" />
        </mxCell>
        <mxCell id="PeHLGWzFGyEWrabVDmBg-748" value="" style="shape=waypoint;sketch=0;fillStyle=solid;size=6;pointerEvents=1;points=[];fillColor=#60a917;resizable=0;rotatable=0;perimeter=centerPerimeter;snapToPoint=1;strokeColor=#2D7600;rotation=-90;container=0;fontColor=#ffffff;" vertex="1" parent="1">
          <mxGeometry x="1141" y="440.25" width="20" height="20" as="geometry" />
        </mxCell>
        <mxCell id="PeHLGWzFGyEWrabVDmBg-749" value="" style="endArrow=none;html=1;rounded=0;fillColor=#60a917;strokeColor=#2D7600;" edge="1" parent="1" source="PeHLGWzFGyEWrabVDmBg-748">
          <mxGeometry width="50" height="50" relative="1" as="geometry">
            <mxPoint x="1169" y="450.25" as="sourcePoint" />
            <mxPoint x="1199" y="450.25" as="targetPoint" />
          </mxGeometry>
        </mxCell>
        <mxCell id="PeHLGWzFGyEWrabVDmBg-871" value="" style="shape=waypoint;sketch=0;fillStyle=solid;size=6;pointerEvents=1;points=[];fillColor=#60a917;resizable=0;rotatable=0;perimeter=centerPerimeter;snapToPoint=1;strokeColor=#2D7600;rotation=-90;container=0;fontColor=#ffffff;" vertex="1" parent="1">
          <mxGeometry x="1641" y="440.25" width="20" height="20" as="geometry" />
        </mxCell>
        <mxCell id="PeHLGWzFGyEWrabVDmBg-872" value="" style="endArrow=none;html=1;rounded=0;fillColor=#60a917;strokeColor=#2D7600;" edge="1" parent="1" source="PeHLGWzFGyEWrabVDmBg-871">
          <mxGeometry width="50" height="50" relative="1" as="geometry">
            <mxPoint x="1669" y="450.25" as="sourcePoint" />
            <mxPoint x="1699" y="450.25" as="targetPoint" />
          </mxGeometry>
        </mxCell>
        <mxCell id="PeHLGWzFGyEWrabVDmBg-912" value="" style="shape=waypoint;sketch=0;fillStyle=solid;size=6;pointerEvents=1;points=[];fillColor=#60a917;resizable=0;rotatable=0;perimeter=centerPerimeter;snapToPoint=1;strokeColor=#2D7600;rotation=-90;container=0;fontColor=#ffffff;" vertex="1" parent="1">
          <mxGeometry x="2151" y="440.25" width="20" height="20" as="geometry" />
        </mxCell>
        <mxCell id="PeHLGWzFGyEWrabVDmBg-913" value="" style="endArrow=none;html=1;rounded=0;fillColor=#60a917;strokeColor=#2D7600;" edge="1" parent="1" source="PeHLGWzFGyEWrabVDmBg-912">
          <mxGeometry width="50" height="50" relative="1" as="geometry">
            <mxPoint x="2179" y="450.25" as="sourcePoint" />
            <mxPoint x="2209" y="450.25" as="targetPoint" />
          </mxGeometry>
        </mxCell>
        <mxCell id="PeHLGWzFGyEWrabVDmBg-710" value="" style="endArrow=none;html=1;rounded=0;fillColor=#e51400;strokeColor=#B20000;" edge="1" parent="1" source="PeHLGWzFGyEWrabVDmBg-711">
          <mxGeometry width="50" height="50" relative="1" as="geometry">
            <mxPoint x="1169" y="419" as="sourcePoint" />
            <mxPoint x="1199" y="419" as="targetPoint" />
          </mxGeometry>
        </mxCell>
        <mxCell id="PeHLGWzFGyEWrabVDmBg-711" value="" style="shape=waypoint;sketch=0;fillStyle=solid;size=6;pointerEvents=1;points=[];fillColor=#e51400;resizable=0;rotatable=0;perimeter=centerPerimeter;snapToPoint=1;strokeColor=#B20000;rotation=90;container=0;fontColor=#ffffff;" vertex="1" parent="1">
          <mxGeometry x="1141" y="409" width="20" height="20" as="geometry" />
        </mxCell>
        <mxCell id="PeHLGWzFGyEWrabVDmBg-874" value="" style="endArrow=none;html=1;rounded=0;fillColor=#e51400;strokeColor=#B20000;" edge="1" parent="1" source="PeHLGWzFGyEWrabVDmBg-875">
          <mxGeometry width="50" height="50" relative="1" as="geometry">
            <mxPoint x="1669" y="419" as="sourcePoint" />
            <mxPoint x="1699" y="419" as="targetPoint" />
          </mxGeometry>
        </mxCell>
        <mxCell id="PeHLGWzFGyEWrabVDmBg-875" value="" style="shape=waypoint;sketch=0;fillStyle=solid;size=6;pointerEvents=1;points=[];fillColor=#e51400;resizable=0;rotatable=0;perimeter=centerPerimeter;snapToPoint=1;strokeColor=#B20000;rotation=90;container=0;fontColor=#ffffff;" vertex="1" parent="1">
          <mxGeometry x="1641" y="409" width="20" height="20" as="geometry" />
        </mxCell>
        <mxCell id="PeHLGWzFGyEWrabVDmBg-915" value="" style="endArrow=none;html=1;rounded=0;fillColor=#e51400;strokeColor=#B20000;" edge="1" parent="1" source="PeHLGWzFGyEWrabVDmBg-916">
          <mxGeometry width="50" height="50" relative="1" as="geometry">
            <mxPoint x="2179" y="419" as="sourcePoint" />
            <mxPoint x="2209" y="419" as="targetPoint" />
          </mxGeometry>
        </mxCell>
        <mxCell id="PeHLGWzFGyEWrabVDmBg-916" value="" style="shape=waypoint;sketch=0;fillStyle=solid;size=6;pointerEvents=1;points=[];fillColor=#e51400;resizable=0;rotatable=0;perimeter=centerPerimeter;snapToPoint=1;strokeColor=#B20000;rotation=90;container=0;fontColor=#ffffff;" vertex="1" parent="1">
          <mxGeometry x="2151" y="409" width="20" height="20" as="geometry" />
        </mxCell>
        <mxCell id="PeHLGWzFGyEWrabVDmBg-751" value="" style="endArrow=none;html=1;rounded=0;fillColor=#e51400;strokeColor=#B20000;" edge="1" parent="1" source="PeHLGWzFGyEWrabVDmBg-752">
          <mxGeometry width="50" height="50" relative="1" as="geometry">
            <mxPoint x="1169" y="419" as="sourcePoint" />
            <mxPoint x="1199" y="419" as="targetPoint" />
          </mxGeometry>
        </mxCell>
        <mxCell id="PeHLGWzFGyEWrabVDmBg-752" value="" style="shape=waypoint;sketch=0;fillStyle=solid;size=6;pointerEvents=1;points=[];fillColor=#e51400;resizable=0;rotatable=0;perimeter=centerPerimeter;snapToPoint=1;strokeColor=#B20000;rotation=90;container=0;fontColor=#ffffff;" vertex="1" parent="1">
          <mxGeometry x="1141" y="409" width="20" height="20" as="geometry" />
        </mxCell>
        <mxCell id="PeHLGWzFGyEWrabVDmBg-667" value="" style="endArrow=none;html=1;rounded=0;fillColor=#60a917;strokeColor=#2D7600;" edge="1" parent="1" source="PeHLGWzFGyEWrabVDmBg-666">
          <mxGeometry width="50" height="50" relative="1" as="geometry">
            <mxPoint x="669" y="450.25" as="sourcePoint" />
            <mxPoint x="699" y="450.25" as="targetPoint" />
          </mxGeometry>
        </mxCell>
        <mxCell id="PeHLGWzFGyEWrabVDmBg-669" value="" style="endArrow=none;html=1;rounded=0;fillColor=#e51400;strokeColor=#B20000;" edge="1" parent="1" source="PeHLGWzFGyEWrabVDmBg-670">
          <mxGeometry width="50" height="50" relative="1" as="geometry">
            <mxPoint x="669" y="419" as="sourcePoint" />
            <mxPoint x="699" y="419" as="targetPoint" />
          </mxGeometry>
        </mxCell>
        <mxCell id="PeHLGWzFGyEWrabVDmBg-670" value="" style="shape=waypoint;sketch=0;fillStyle=solid;size=6;pointerEvents=1;points=[];fillColor=#e51400;resizable=0;rotatable=0;perimeter=centerPerimeter;snapToPoint=1;strokeColor=#B20000;rotation=90;container=0;fontColor=#ffffff;" vertex="1" parent="1">
          <mxGeometry x="641" y="409" width="20" height="20" as="geometry" />
        </mxCell>
        <mxCell id="PeHLGWzFGyEWrabVDmBg-479" value="" style="shape=waypoint;sketch=0;fillStyle=solid;size=6;pointerEvents=1;points=[];fillColor=#60a917;resizable=0;rotatable=0;perimeter=centerPerimeter;snapToPoint=1;strokeColor=#2D7600;rotation=-90;container=0;fontColor=#ffffff;" vertex="1" parent="1">
          <mxGeometry x="141" y="440.25" width="20" height="20" as="geometry" />
        </mxCell>
        <mxCell id="PeHLGWzFGyEWrabVDmBg-478" value="" style="endArrow=none;html=1;rounded=0;fillColor=#60a917;strokeColor=#2D7600;" edge="1" parent="1" source="PeHLGWzFGyEWrabVDmBg-479">
          <mxGeometry width="50" height="50" relative="1" as="geometry">
            <mxPoint x="169" y="450.25" as="sourcePoint" />
            <mxPoint x="199" y="450.25" as="targetPoint" />
          </mxGeometry>
        </mxCell>
        <mxCell id="PeHLGWzFGyEWrabVDmBg-474" value="" style="endArrow=none;html=1;rounded=0;fillColor=#e51400;strokeColor=#B20000;" edge="1" source="PeHLGWzFGyEWrabVDmBg-475" parent="1">
          <mxGeometry width="50" height="50" relative="1" as="geometry">
            <mxPoint x="169" y="419" as="sourcePoint" />
            <mxPoint x="199" y="419" as="targetPoint" />
          </mxGeometry>
        </mxCell>
        <mxCell id="PeHLGWzFGyEWrabVDmBg-951" value="" style="verticalLabelPosition=bottom;shadow=0;dashed=0;align=center;html=1;verticalAlign=top;shape=mxgraph.electrical.logic_gates.logic_gate;operation=xor;aspect=fixed;rotation=-90;container=0;" vertex="1" parent="1">
          <mxGeometry x="606.67" y="676.67" width="66.67" height="40" as="geometry" />
        </mxCell>
        <mxCell id="PeHLGWzFGyEWrabVDmBg-954" value="" style="verticalLabelPosition=bottom;shadow=0;dashed=0;align=center;html=1;verticalAlign=top;shape=mxgraph.electrical.logic_gates.logic_gate;operation=xor;aspect=fixed;rotation=-90;container=0;" vertex="1" parent="1">
          <mxGeometry x="1103.3300000000002" y="676.67" width="70" height="40" as="geometry" />
        </mxCell>
        <mxCell id="PeHLGWzFGyEWrabVDmBg-956" value="" style="shape=or;whiteSpace=wrap;html=1;aspect=fixed;direction=north;rotation=90;container=0;" vertex="1" parent="1">
          <mxGeometry x="990.0000000000002" y="760" width="50" height="37.5" as="geometry" />
        </mxCell>
        <mxCell id="PeHLGWzFGyEWrabVDmBg-957" value="" style="endArrow=none;html=1;rounded=0;exitX=0;exitY=0.75;exitDx=0;exitDy=0;exitPerimeter=0;" edge="1" parent="1" source="PeHLGWzFGyEWrabVDmBg-956">
          <mxGeometry width="50" height="50" relative="1" as="geometry">
            <mxPoint x="990" y="790" as="sourcePoint" />
            <mxPoint x="520" y="730" as="targetPoint" />
            <Array as="points">
              <mxPoint x="520" y="790" />
            </Array>
          </mxGeometry>
        </mxCell>
        <mxCell id="PeHLGWzFGyEWrabVDmBg-959" value="" style="endArrow=none;html=1;rounded=0;entryX=0;entryY=0.25;entryDx=0;entryDy=0;entryPerimeter=0;" edge="1" parent="1" target="PeHLGWzFGyEWrabVDmBg-956">
          <mxGeometry width="50" height="50" relative="1" as="geometry">
            <mxPoint x="880" y="730" as="sourcePoint" />
            <mxPoint x="976.2500000000002" y="766.25" as="targetPoint" />
            <Array as="points">
              <mxPoint x="880" y="766" />
            </Array>
          </mxGeometry>
        </mxCell>
        <mxCell id="PeHLGWzFGyEWrabVDmBg-963" value="" style="endArrow=none;html=1;rounded=0;exitX=0.995;exitY=0.527;exitDx=0;exitDy=0;exitPerimeter=0;entryX=0;entryY=0.25;entryDx=0;entryDy=0;entryPerimeter=0;" edge="1" parent="1" source="PeHLGWzFGyEWrabVDmBg-956" target="PeHLGWzFGyEWrabVDmBg-954">
          <mxGeometry width="50" height="50" relative="1" as="geometry">
            <mxPoint x="1080" y="780" as="sourcePoint" />
            <mxPoint x="1130" y="780" as="targetPoint" />
            <Array as="points">
              <mxPoint x="1128" y="780" />
            </Array>
          </mxGeometry>
        </mxCell>
        <mxCell id="PeHLGWzFGyEWrabVDmBg-463" value="" style="endArrow=none;html=1;rounded=0;exitX=0.999;exitY=0.626;exitDx=0;exitDy=0;exitPerimeter=0;" edge="1" parent="1" source="PeHLGWzFGyEWrabVDmBg-1">
          <mxGeometry width="50" height="50" relative="1" as="geometry">
            <mxPoint x="310" y="520" as="sourcePoint" />
            <mxPoint x="360" y="500" as="targetPoint" />
          </mxGeometry>
        </mxCell>
        <mxCell id="PeHLGWzFGyEWrabVDmBg-467" value="" style="endArrow=none;html=1;rounded=0;entryX=0.002;entryY=0.877;entryDx=0;entryDy=0;entryPerimeter=0;" edge="1" parent="1" target="PeHLGWzFGyEWrabVDmBg-1">
          <mxGeometry width="50" height="50" relative="1" as="geometry">
            <mxPoint x="140" y="540" as="sourcePoint" />
            <mxPoint x="230" y="510" as="targetPoint" />
          </mxGeometry>
        </mxCell>
        <mxCell id="PeHLGWzFGyEWrabVDmBg-158" value="" style="shape=waypoint;sketch=0;fillStyle=solid;size=6;pointerEvents=1;points=[];fillColor=#e1d5e7;resizable=1;rotatable=1;perimeter=centerPerimeter;snapToPoint=1;strokeColor=#9673a6;movable=1;deletable=1;editable=1;locked=0;connectable=1;rotation=-180;container=0;" vertex="1" parent="1">
          <mxGeometry x="143.32999999999998" y="170" width="20" height="20" as="geometry" />
        </mxCell>
        <mxCell id="PeHLGWzFGyEWrabVDmBg-149" value="" style="endArrow=none;html=1;rounded=0;fillColor=#e3c800;strokeColor=#B09500;movable=1;resizable=1;rotatable=1;deletable=1;editable=1;locked=0;connectable=1;" edge="1" source="PeHLGWzFGyEWrabVDmBg-150" parent="1">
          <mxGeometry width="50" height="50" relative="1" as="geometry">
            <mxPoint x="63.33" y="288" as="sourcePoint" />
            <mxPoint x="63.33" y="318" as="targetPoint" />
          </mxGeometry>
        </mxCell>
        <mxCell id="PeHLGWzFGyEWrabVDmBg-150" value="" style="shape=waypoint;sketch=0;fillStyle=solid;size=6;pointerEvents=1;points=[];fillColor=#e3c800;resizable=1;rotatable=1;perimeter=centerPerimeter;snapToPoint=1;strokeColor=#B09500;movable=1;deletable=1;editable=1;locked=0;connectable=1;rotation=-180;container=0;fontColor=#000000;" vertex="1" parent="1">
          <mxGeometry x="53.330000000000005" y="280" width="20" height="20" as="geometry" />
        </mxCell>
        <mxCell id="PeHLGWzFGyEWrabVDmBg-157" value="" style="endArrow=none;html=1;rounded=0;fillColor=#e1d5e7;strokeColor=#9673a6;movable=1;resizable=1;rotatable=1;deletable=1;editable=1;locked=0;connectable=1;" edge="1" parent="1" source="PeHLGWzFGyEWrabVDmBg-158">
          <mxGeometry width="50" height="50" relative="1" as="geometry">
            <mxPoint x="153.32999999999998" y="218" as="sourcePoint" />
            <mxPoint x="153.32999999999998" y="248" as="targetPoint" />
          </mxGeometry>
        </mxCell>
        <mxCell id="PeHLGWzFGyEWrabVDmBg-141" value="" style="shape=or;whiteSpace=wrap;html=1;aspect=fixed;direction=north;rotation=-180;container=0;" vertex="1" parent="1">
          <mxGeometry x="113.33" y="240" width="50" height="37.5" as="geometry" />
        </mxCell>
        <mxCell id="PeHLGWzFGyEWrabVDmBg-154" value="" style="endArrow=none;html=1;rounded=0;fillColor=#a0522d;strokeColor=#6D1F00;movable=1;resizable=1;rotatable=1;deletable=1;editable=1;locked=0;connectable=1;" edge="1" parent="1" source="PeHLGWzFGyEWrabVDmBg-155">
          <mxGeometry width="50" height="50" relative="1" as="geometry">
            <mxPoint x="128.32999999999998" y="178" as="sourcePoint" />
            <mxPoint x="128.32999999999998" y="208" as="targetPoint" />
          </mxGeometry>
        </mxCell>
        <mxCell id="PeHLGWzFGyEWrabVDmBg-11" value="&lt;font style=&quot;font-size: 13px;&quot;&gt;rst&lt;/font&gt;" style="text;html=1;align=center;verticalAlign=middle;whiteSpace=wrap;rounded=0;container=0;" vertex="1" parent="1">
          <mxGeometry x="73.0000000000002" y="460" width="30" height="20" as="geometry" />
        </mxCell>
        <mxCell id="PeHLGWzFGyEWrabVDmBg-12" value="&lt;font style=&quot;font-size: 13px;&quot;&gt;preset&lt;/font&gt;" style="text;html=1;align=center;verticalAlign=middle;whiteSpace=wrap;rounded=0;container=0;" vertex="1" parent="1">
          <mxGeometry x="83.0000000000002" y="510" width="30" height="20" as="geometry" />
        </mxCell>
        <mxCell id="PeHLGWzFGyEWrabVDmBg-454" value="" style="endArrow=none;html=1;rounded=0;" edge="1" parent="1">
          <mxGeometry width="50" height="50" relative="1" as="geometry">
            <mxPoint x="140" y="600" as="sourcePoint" />
            <mxPoint x="140" y="540" as="targetPoint" />
          </mxGeometry>
        </mxCell>
        <mxCell id="PeHLGWzFGyEWrabVDmBg-462" value="" style="endArrow=none;html=1;rounded=0;" edge="1" parent="1">
          <mxGeometry width="50" height="50" relative="1" as="geometry">
            <mxPoint x="140" y="600" as="sourcePoint" />
            <mxPoint x="360" y="600" as="targetPoint" />
          </mxGeometry>
        </mxCell>
        <mxCell id="PeHLGWzFGyEWrabVDmBg-1" value="&lt;font style=&quot;font-size: 15px;&quot;&gt;Flip_Flop_D&lt;/font&gt;&lt;div&gt;&lt;font style=&quot;font-size: 15px;&quot;&gt;0&lt;/font&gt;&lt;/div&gt;" style="rounded=0;whiteSpace=wrap;html=1;container=0;" vertex="1" parent="1">
          <mxGeometry x="193.00000000000023" y="400" width="120" height="160" as="geometry" />
        </mxCell>
        <mxCell id="PeHLGWzFGyEWrabVDmBg-9" value="&lt;font style=&quot;font-size: 13px;&quot;&gt;v_set(0)&lt;/font&gt;" style="text;html=1;align=center;verticalAlign=middle;whiteSpace=wrap;rounded=0;container=0;" vertex="1" parent="1">
          <mxGeometry x="88.3300000000002" y="660" width="30" height="20" as="geometry" />
        </mxCell>
        <mxCell id="PeHLGWzFGyEWrabVDmBg-13" value="&lt;font style=&quot;font-size: 13px;&quot;&gt;input&lt;/font&gt;" style="text;html=1;align=center;verticalAlign=middle;whiteSpace=wrap;rounded=0;container=0;" vertex="1" parent="1">
          <mxGeometry x="140.0000000000002" y="520" width="40" height="20" as="geometry" />
        </mxCell>
        <mxCell id="PeHLGWzFGyEWrabVDmBg-14" value="&lt;font style=&quot;font-size: 13px;&quot;&gt;not_output&lt;/font&gt;" style="text;html=1;align=center;verticalAlign=middle;whiteSpace=wrap;rounded=0;container=0;" vertex="1" parent="1">
          <mxGeometry x="313.0000000000002" y="480" width="70" height="20" as="geometry" />
        </mxCell>
        <mxCell id="PeHLGWzFGyEWrabVDmBg-15" value="&lt;font style=&quot;font-size: 13px;&quot;&gt;counter(0)&lt;/font&gt;" style="text;html=1;align=center;verticalAlign=middle;whiteSpace=wrap;rounded=0;container=0;" vertex="1" parent="1">
          <mxGeometry x="328.0000000000002" y="420" width="40" height="20" as="geometry" />
        </mxCell>
        <mxCell id="PeHLGWzFGyEWrabVDmBg-453" value="" style="endArrow=none;html=1;rounded=0;" edge="1" parent="1">
          <mxGeometry width="50" height="50" relative="1" as="geometry">
            <mxPoint x="360" y="600" as="sourcePoint" />
            <mxPoint x="360" y="500" as="targetPoint" />
          </mxGeometry>
        </mxCell>
        <mxCell id="PeHLGWzFGyEWrabVDmBg-236" value="" style="endArrow=none;html=1;rounded=0;fillColor=#e1d5e7;strokeColor=#9673a6;movable=1;resizable=1;rotatable=1;deletable=1;editable=1;locked=0;connectable=1;" edge="1" parent="1" source="PeHLGWzFGyEWrabVDmBg-237">
          <mxGeometry width="50" height="50" relative="1" as="geometry">
            <mxPoint x="93.0000000000002" y="660" as="sourcePoint" />
            <mxPoint x="93.0000000000002" y="630" as="targetPoint" />
          </mxGeometry>
        </mxCell>
        <mxCell id="PeHLGWzFGyEWrabVDmBg-237" value="" style="shape=waypoint;sketch=0;fillStyle=solid;size=6;pointerEvents=1;points=[];fillColor=#e1d5e7;resizable=1;rotatable=1;perimeter=centerPerimeter;snapToPoint=1;strokeColor=#9673a6;movable=1;deletable=1;editable=1;locked=0;connectable=1;rotation=0;container=0;" vertex="1" parent="1">
          <mxGeometry x="83.0000000000002" y="648" width="20" height="20" as="geometry" />
        </mxCell>
        <mxCell id="PeHLGWzFGyEWrabVDmBg-241" value="" style="endArrow=none;html=1;rounded=0;fillColor=#a0522d;strokeColor=#6D1F00;movable=1;resizable=1;rotatable=1;deletable=1;editable=1;locked=0;connectable=1;" edge="1" parent="1" source="PeHLGWzFGyEWrabVDmBg-242">
          <mxGeometry width="50" height="50" relative="1" as="geometry">
            <mxPoint x="63.0000000000002" y="660" as="sourcePoint" />
            <mxPoint x="63.0000000000002" y="630" as="targetPoint" />
          </mxGeometry>
        </mxCell>
        <mxCell id="PeHLGWzFGyEWrabVDmBg-242" value="" style="shape=waypoint;sketch=0;fillStyle=solid;size=6;pointerEvents=1;points=[];fillColor=#a0522d;resizable=1;rotatable=1;perimeter=centerPerimeter;snapToPoint=1;strokeColor=#6D1F00;movable=1;deletable=1;editable=1;locked=0;connectable=1;rotation=0;container=0;fontColor=#ffffff;" vertex="1" parent="1">
          <mxGeometry x="53.0000000000002" y="648" width="20" height="20" as="geometry" />
        </mxCell>
        <mxCell id="PeHLGWzFGyEWrabVDmBg-470" value="" style="endArrow=none;html=1;rounded=0;entryX=0.005;entryY=0.682;entryDx=0;entryDy=0;entryPerimeter=0;" edge="1" parent="1" target="PeHLGWzFGyEWrabVDmBg-1">
          <mxGeometry width="50" height="50" relative="1" as="geometry">
            <mxPoint x="78.11000000000001" y="600" as="sourcePoint" />
            <mxPoint x="190" y="510" as="targetPoint" />
            <Array as="points">
              <mxPoint x="78" y="509" />
            </Array>
          </mxGeometry>
        </mxCell>
        <mxCell id="PeHLGWzFGyEWrabVDmBg-472" value="" style="endArrow=none;html=1;rounded=0;exitX=0.175;exitY=0.25;exitDx=0;exitDy=0;exitPerimeter=0;" edge="1" parent="1" source="PeHLGWzFGyEWrabVDmBg-142">
          <mxGeometry width="50" height="50" relative="1" as="geometry">
            <mxPoint x="90" y="327.5" as="sourcePoint" />
            <mxPoint x="140" y="277.5" as="targetPoint" />
            <Array as="points">
              <mxPoint x="90" y="290" />
              <mxPoint x="140" y="290" />
            </Array>
          </mxGeometry>
        </mxCell>
        <mxCell id="PeHLGWzFGyEWrabVDmBg-142" value="" style="shape=xor;whiteSpace=wrap;html=1;aspect=fixed;direction=north;rotation=-180;container=0;" vertex="1" parent="1">
          <mxGeometry x="50" y="307.5" width="53.33" height="40" as="geometry" />
        </mxCell>
        <mxCell id="PeHLGWzFGyEWrabVDmBg-143" value="" style="verticalLabelPosition=bottom;shadow=0;dashed=0;align=center;html=1;verticalAlign=top;shape=mxgraph.electrical.logic_gates.inverter_2;aspect=fixed;direction=north;rotation=-180;container=0;" vertex="1" parent="1">
          <mxGeometry x="113.33" y="190" width="30" height="50" as="geometry" />
        </mxCell>
        <mxCell id="PeHLGWzFGyEWrabVDmBg-493" value="" style="endArrow=none;html=1;rounded=0;entryX=1;entryY=0.5;entryDx=0;entryDy=0;entryPerimeter=0;exitX=0;exitY=0.5;exitDx=0;exitDy=0;" edge="1" parent="1" source="PeHLGWzFGyEWrabVDmBg-1" target="PeHLGWzFGyEWrabVDmBg-142">
          <mxGeometry width="50" height="50" relative="1" as="geometry">
            <mxPoint x="30.000000000000004" y="397.5" as="sourcePoint" />
            <mxPoint x="80" y="347.5" as="targetPoint" />
            <Array as="points">
              <mxPoint x="77" y="480" />
            </Array>
          </mxGeometry>
        </mxCell>
        <mxCell id="PeHLGWzFGyEWrabVDmBg-239" value="" style="shape=or;whiteSpace=wrap;html=1;aspect=fixed;direction=north;rotation=0;container=0;" vertex="1" parent="1">
          <mxGeometry x="53.0000000000002" y="600" width="50" height="37.5" as="geometry" />
        </mxCell>
        <mxCell id="PeHLGWzFGyEWrabVDmBg-952" value="" style="endArrow=none;html=1;rounded=0;exitX=0;exitY=0.25;exitDx=0;exitDy=0;exitPerimeter=0;" edge="1" parent="1" source="PeHLGWzFGyEWrabVDmBg-951">
          <mxGeometry width="50" height="50" relative="1" as="geometry">
            <mxPoint x="350.88" y="490" as="sourcePoint" />
            <mxPoint x="400.88" y="440" as="targetPoint" />
            <Array as="points">
              <mxPoint x="401" y="730" />
            </Array>
          </mxGeometry>
        </mxCell>
        <mxCell id="PeHLGWzFGyEWrabVDmBg-475" value="" style="shape=waypoint;sketch=0;fillStyle=solid;size=6;pointerEvents=1;points=[];fillColor=#e51400;resizable=0;rotatable=0;perimeter=centerPerimeter;snapToPoint=1;strokeColor=#B20000;rotation=90;container=0;fontColor=#ffffff;" vertex="1" parent="1">
          <mxGeometry x="141" y="409" width="20" height="20" as="geometry" />
        </mxCell>
        <mxCell id="PeHLGWzFGyEWrabVDmBg-491" value="" style="endArrow=none;html=1;rounded=0;fillColor=#0050ef;strokeColor=#001DBC;entryX=1;entryY=0.25;entryDx=0;entryDy=0;exitX=0.414;exitY=0.976;exitDx=0;exitDy=0;exitPerimeter=0;" edge="1" parent="1">
          <mxGeometry width="50" height="50" relative="1" as="geometry">
            <mxPoint x="429" y="440" as="sourcePoint" />
            <mxPoint x="313.0000000000002" y="440" as="targetPoint" />
          </mxGeometry>
        </mxCell>
        <mxCell id="PeHLGWzFGyEWrabVDmBg-492" value="" style="shape=waypoint;sketch=0;fillStyle=solid;size=6;pointerEvents=1;points=[];fillColor=#0050ef;resizable=0;rotatable=0;perimeter=centerPerimeter;snapToPoint=1;strokeColor=#001DBC;rotation=-90;container=0;fontColor=#ffffff;" vertex="1" parent="1">
          <mxGeometry x="420" y="430" width="20" height="20" as="geometry" />
        </mxCell>
        <mxCell id="PeHLGWzFGyEWrabVDmBg-672" value="" style="endArrow=none;html=1;rounded=0;entryX=0.002;entryY=0.877;entryDx=0;entryDy=0;entryPerimeter=0;" edge="1" parent="1" target="PeHLGWzFGyEWrabVDmBg-684">
          <mxGeometry width="50" height="50" relative="1" as="geometry">
            <mxPoint x="640" y="540" as="sourcePoint" />
            <mxPoint x="730" y="510" as="targetPoint" />
          </mxGeometry>
        </mxCell>
        <mxCell id="PeHLGWzFGyEWrabVDmBg-673" value="" style="shape=waypoint;sketch=0;fillStyle=solid;size=6;pointerEvents=1;points=[];fillColor=#e1d5e7;resizable=1;rotatable=1;perimeter=centerPerimeter;snapToPoint=1;strokeColor=#9673a6;movable=1;deletable=1;editable=1;locked=0;connectable=1;rotation=-180;container=0;" vertex="1" parent="1">
          <mxGeometry x="643.33" y="170" width="20" height="20" as="geometry" />
        </mxCell>
        <mxCell id="PeHLGWzFGyEWrabVDmBg-674" value="" style="endArrow=none;html=1;rounded=0;fillColor=#e3c800;strokeColor=#B09500;movable=1;resizable=1;rotatable=1;deletable=1;editable=1;locked=0;connectable=1;" edge="1" parent="1" source="PeHLGWzFGyEWrabVDmBg-675">
          <mxGeometry width="50" height="50" relative="1" as="geometry">
            <mxPoint x="563.33" y="288" as="sourcePoint" />
            <mxPoint x="563.33" y="318" as="targetPoint" />
          </mxGeometry>
        </mxCell>
        <mxCell id="PeHLGWzFGyEWrabVDmBg-675" value="" style="shape=waypoint;sketch=0;fillStyle=solid;size=6;pointerEvents=1;points=[];fillColor=#e3c800;resizable=1;rotatable=1;perimeter=centerPerimeter;snapToPoint=1;strokeColor=#B09500;movable=1;deletable=1;editable=1;locked=0;connectable=1;rotation=-180;container=0;fontColor=#000000;" vertex="1" parent="1">
          <mxGeometry x="553.33" y="280" width="20" height="20" as="geometry" />
        </mxCell>
        <mxCell id="PeHLGWzFGyEWrabVDmBg-676" value="" style="endArrow=none;html=1;rounded=0;fillColor=#e1d5e7;strokeColor=#9673a6;movable=1;resizable=1;rotatable=1;deletable=1;editable=1;locked=0;connectable=1;" edge="1" parent="1" source="PeHLGWzFGyEWrabVDmBg-673">
          <mxGeometry width="50" height="50" relative="1" as="geometry">
            <mxPoint x="653.33" y="218" as="sourcePoint" />
            <mxPoint x="653.33" y="248" as="targetPoint" />
          </mxGeometry>
        </mxCell>
        <mxCell id="PeHLGWzFGyEWrabVDmBg-677" value="" style="shape=or;whiteSpace=wrap;html=1;aspect=fixed;direction=north;rotation=-180;container=0;" vertex="1" parent="1">
          <mxGeometry x="613.33" y="240" width="50" height="37.5" as="geometry" />
        </mxCell>
        <mxCell id="PeHLGWzFGyEWrabVDmBg-678" value="" style="endArrow=none;html=1;rounded=0;fillColor=#a0522d;strokeColor=#6D1F00;movable=1;resizable=1;rotatable=1;deletable=1;editable=1;locked=0;connectable=1;" edge="1" parent="1" source="PeHLGWzFGyEWrabVDmBg-679">
          <mxGeometry width="50" height="50" relative="1" as="geometry">
            <mxPoint x="628.33" y="178" as="sourcePoint" />
            <mxPoint x="628.33" y="208" as="targetPoint" />
          </mxGeometry>
        </mxCell>
        <mxCell id="PeHLGWzFGyEWrabVDmBg-680" value="&lt;font style=&quot;font-size: 13px;&quot;&gt;rst&lt;/font&gt;" style="text;html=1;align=center;verticalAlign=middle;whiteSpace=wrap;rounded=0;container=0;" vertex="1" parent="1">
          <mxGeometry x="573.0000000000002" y="460" width="30" height="20" as="geometry" />
        </mxCell>
        <mxCell id="PeHLGWzFGyEWrabVDmBg-681" value="&lt;font style=&quot;font-size: 13px;&quot;&gt;preset&lt;/font&gt;" style="text;html=1;align=center;verticalAlign=middle;whiteSpace=wrap;rounded=0;container=0;" vertex="1" parent="1">
          <mxGeometry x="583.0000000000002" y="510" width="30" height="20" as="geometry" />
        </mxCell>
        <mxCell id="PeHLGWzFGyEWrabVDmBg-682" value="" style="endArrow=none;html=1;rounded=0;exitX=1;exitY=0.5;exitDx=0;exitDy=0;exitPerimeter=0;" edge="1" parent="1" source="PeHLGWzFGyEWrabVDmBg-951">
          <mxGeometry width="50" height="50" relative="1" as="geometry">
            <mxPoint x="640" y="660" as="sourcePoint" />
            <mxPoint x="640" y="540" as="targetPoint" />
          </mxGeometry>
        </mxCell>
        <mxCell id="PeHLGWzFGyEWrabVDmBg-684" value="&lt;font style=&quot;font-size: 15px;&quot;&gt;Flip_Flop_D&lt;/font&gt;&lt;div&gt;&lt;font style=&quot;font-size: 15px;&quot;&gt;1&lt;/font&gt;&lt;/div&gt;" style="rounded=0;whiteSpace=wrap;html=1;container=0;" vertex="1" parent="1">
          <mxGeometry x="693.0000000000002" y="400" width="120" height="160" as="geometry" />
        </mxCell>
        <mxCell id="PeHLGWzFGyEWrabVDmBg-687" value="&lt;font style=&quot;font-size: 13px;&quot;&gt;input&lt;/font&gt;" style="text;html=1;align=center;verticalAlign=middle;whiteSpace=wrap;rounded=0;container=0;" vertex="1" parent="1">
          <mxGeometry x="640.0000000000002" y="520" width="40" height="20" as="geometry" />
        </mxCell>
        <mxCell id="PeHLGWzFGyEWrabVDmBg-689" value="&lt;span style=&quot;font-size: 13px;&quot;&gt;counter(1)&lt;/span&gt;" style="text;html=1;align=center;verticalAlign=middle;whiteSpace=wrap;rounded=0;container=0;" vertex="1" parent="1">
          <mxGeometry x="827.0000000000002" y="420" width="40" height="20" as="geometry" />
        </mxCell>
        <mxCell id="PeHLGWzFGyEWrabVDmBg-691" value="" style="endArrow=none;html=1;rounded=0;fillColor=#e1d5e7;strokeColor=#9673a6;movable=1;resizable=1;rotatable=1;deletable=1;editable=1;locked=0;connectable=1;" edge="1" parent="1" source="PeHLGWzFGyEWrabVDmBg-692">
          <mxGeometry width="50" height="50" relative="1" as="geometry">
            <mxPoint x="593.0000000000002" y="660" as="sourcePoint" />
            <mxPoint x="593.0000000000002" y="630" as="targetPoint" />
          </mxGeometry>
        </mxCell>
        <mxCell id="PeHLGWzFGyEWrabVDmBg-692" value="" style="shape=waypoint;sketch=0;fillStyle=solid;size=6;pointerEvents=1;points=[];fillColor=#e1d5e7;resizable=1;rotatable=1;perimeter=centerPerimeter;snapToPoint=1;strokeColor=#9673a6;movable=1;deletable=1;editable=1;locked=0;connectable=1;rotation=0;container=0;" vertex="1" parent="1">
          <mxGeometry x="583.0000000000002" y="648" width="20" height="20" as="geometry" />
        </mxCell>
        <mxCell id="PeHLGWzFGyEWrabVDmBg-693" value="" style="endArrow=none;html=1;rounded=0;fillColor=#a0522d;strokeColor=#6D1F00;movable=1;resizable=1;rotatable=1;deletable=1;editable=1;locked=0;connectable=1;" edge="1" parent="1" source="PeHLGWzFGyEWrabVDmBg-694">
          <mxGeometry width="50" height="50" relative="1" as="geometry">
            <mxPoint x="563.0000000000002" y="660" as="sourcePoint" />
            <mxPoint x="563.0000000000002" y="630" as="targetPoint" />
          </mxGeometry>
        </mxCell>
        <mxCell id="PeHLGWzFGyEWrabVDmBg-694" value="" style="shape=waypoint;sketch=0;fillStyle=solid;size=6;pointerEvents=1;points=[];fillColor=#a0522d;resizable=1;rotatable=1;perimeter=centerPerimeter;snapToPoint=1;strokeColor=#6D1F00;movable=1;deletable=1;editable=1;locked=0;connectable=1;rotation=0;container=0;fontColor=#ffffff;" vertex="1" parent="1">
          <mxGeometry x="553.0000000000002" y="648" width="20" height="20" as="geometry" />
        </mxCell>
        <mxCell id="PeHLGWzFGyEWrabVDmBg-695" value="" style="endArrow=none;html=1;rounded=0;entryX=0.005;entryY=0.682;entryDx=0;entryDy=0;entryPerimeter=0;" edge="1" parent="1" target="PeHLGWzFGyEWrabVDmBg-684">
          <mxGeometry width="50" height="50" relative="1" as="geometry">
            <mxPoint x="578.11" y="600" as="sourcePoint" />
            <mxPoint x="690" y="510" as="targetPoint" />
            <Array as="points">
              <mxPoint x="578" y="509" />
            </Array>
          </mxGeometry>
        </mxCell>
        <mxCell id="PeHLGWzFGyEWrabVDmBg-696" value="" style="endArrow=none;html=1;rounded=0;exitX=0.175;exitY=0.25;exitDx=0;exitDy=0;exitPerimeter=0;" edge="1" parent="1" source="PeHLGWzFGyEWrabVDmBg-697">
          <mxGeometry width="50" height="50" relative="1" as="geometry">
            <mxPoint x="590" y="327.5" as="sourcePoint" />
            <mxPoint x="640" y="277.5" as="targetPoint" />
            <Array as="points">
              <mxPoint x="590" y="290" />
              <mxPoint x="640" y="290" />
            </Array>
          </mxGeometry>
        </mxCell>
        <mxCell id="PeHLGWzFGyEWrabVDmBg-697" value="" style="shape=xor;whiteSpace=wrap;html=1;aspect=fixed;direction=north;rotation=-180;container=0;" vertex="1" parent="1">
          <mxGeometry x="550" y="307.5" width="53.33" height="40" as="geometry" />
        </mxCell>
        <mxCell id="PeHLGWzFGyEWrabVDmBg-698" value="" style="verticalLabelPosition=bottom;shadow=0;dashed=0;align=center;html=1;verticalAlign=top;shape=mxgraph.electrical.logic_gates.inverter_2;aspect=fixed;direction=north;rotation=-180;container=0;" vertex="1" parent="1">
          <mxGeometry x="613.33" y="190" width="30" height="50" as="geometry" />
        </mxCell>
        <mxCell id="PeHLGWzFGyEWrabVDmBg-699" value="" style="endArrow=none;html=1;rounded=0;entryX=1;entryY=0.5;entryDx=0;entryDy=0;entryPerimeter=0;exitX=0;exitY=0.5;exitDx=0;exitDy=0;" edge="1" parent="1" source="PeHLGWzFGyEWrabVDmBg-684" target="PeHLGWzFGyEWrabVDmBg-697">
          <mxGeometry width="50" height="50" relative="1" as="geometry">
            <mxPoint x="530" y="397.5" as="sourcePoint" />
            <mxPoint x="580" y="347.5" as="targetPoint" />
            <Array as="points">
              <mxPoint x="577" y="480" />
            </Array>
          </mxGeometry>
        </mxCell>
        <mxCell id="PeHLGWzFGyEWrabVDmBg-700" value="" style="shape=or;whiteSpace=wrap;html=1;aspect=fixed;direction=north;rotation=0;container=0;" vertex="1" parent="1">
          <mxGeometry x="553.0000000000002" y="600" width="50" height="37.5" as="geometry" />
        </mxCell>
        <mxCell id="PeHLGWzFGyEWrabVDmBg-953" value="" style="endArrow=none;html=1;rounded=0;exitX=0;exitY=0.75;exitDx=0;exitDy=0;exitPerimeter=0;" edge="1" parent="1" source="PeHLGWzFGyEWrabVDmBg-951">
          <mxGeometry width="50" height="50" relative="1" as="geometry">
            <mxPoint x="900" y="720" as="sourcePoint" />
            <mxPoint x="900.88" y="440" as="targetPoint" />
            <Array as="points">
              <mxPoint x="901" y="730" />
            </Array>
          </mxGeometry>
        </mxCell>
        <mxCell id="PeHLGWzFGyEWrabVDmBg-666" value="" style="shape=waypoint;sketch=0;fillStyle=solid;size=6;pointerEvents=1;points=[];fillColor=#60a917;resizable=0;rotatable=0;perimeter=centerPerimeter;snapToPoint=1;strokeColor=#2D7600;rotation=-90;container=0;fontColor=#ffffff;" vertex="1" parent="1">
          <mxGeometry x="641" y="440.25" width="20" height="20" as="geometry" />
        </mxCell>
        <mxCell id="PeHLGWzFGyEWrabVDmBg-704" value="" style="endArrow=none;html=1;rounded=0;fillColor=#0050ef;strokeColor=#001DBC;entryX=1;entryY=0.25;entryDx=0;entryDy=0;exitX=0.414;exitY=0.976;exitDx=0;exitDy=0;exitPerimeter=0;" edge="1" parent="1">
          <mxGeometry width="50" height="50" relative="1" as="geometry">
            <mxPoint x="929" y="440" as="sourcePoint" />
            <mxPoint x="813.0000000000002" y="440" as="targetPoint" />
          </mxGeometry>
        </mxCell>
        <mxCell id="PeHLGWzFGyEWrabVDmBg-703" value="" style="shape=waypoint;sketch=0;fillStyle=solid;size=6;pointerEvents=1;points=[];fillColor=#0050ef;resizable=0;rotatable=0;perimeter=centerPerimeter;snapToPoint=1;strokeColor=#001DBC;rotation=-90;container=0;fontColor=#ffffff;" vertex="1" parent="1">
          <mxGeometry x="920" y="430" width="20" height="20" as="geometry" />
        </mxCell>
        <mxCell id="PeHLGWzFGyEWrabVDmBg-714" value="" style="shape=waypoint;sketch=0;fillStyle=solid;size=6;pointerEvents=1;points=[];fillColor=#e1d5e7;resizable=1;rotatable=1;perimeter=centerPerimeter;snapToPoint=1;strokeColor=#9673a6;movable=1;deletable=1;editable=1;locked=0;connectable=1;rotation=-180;container=0;" vertex="1" parent="1">
          <mxGeometry x="1143.33" y="170" width="20" height="20" as="geometry" />
        </mxCell>
        <mxCell id="PeHLGWzFGyEWrabVDmBg-715" value="" style="endArrow=none;html=1;rounded=0;fillColor=#e1d5e7;strokeColor=#9673a6;movable=1;resizable=1;rotatable=1;deletable=1;editable=1;locked=0;connectable=1;" edge="1" parent="1" source="PeHLGWzFGyEWrabVDmBg-716">
          <mxGeometry width="50" height="50" relative="1" as="geometry">
            <mxPoint x="1063.33" y="288" as="sourcePoint" />
            <mxPoint x="1063.33" y="318" as="targetPoint" />
          </mxGeometry>
        </mxCell>
        <mxCell id="PeHLGWzFGyEWrabVDmBg-716" value="" style="shape=waypoint;sketch=0;fillStyle=solid;size=6;pointerEvents=1;points=[];fillColor=#e1d5e7;resizable=1;rotatable=1;perimeter=centerPerimeter;snapToPoint=1;strokeColor=#9673a6;movable=1;deletable=1;editable=1;locked=0;connectable=1;rotation=-180;container=0;" vertex="1" parent="1">
          <mxGeometry x="1053.33" y="280" width="20" height="20" as="geometry" />
        </mxCell>
        <mxCell id="PeHLGWzFGyEWrabVDmBg-717" value="" style="endArrow=none;html=1;rounded=0;fillColor=#e1d5e7;strokeColor=#9673a6;movable=1;resizable=1;rotatable=1;deletable=1;editable=1;locked=0;connectable=1;" edge="1" parent="1" source="PeHLGWzFGyEWrabVDmBg-714">
          <mxGeometry width="50" height="50" relative="1" as="geometry">
            <mxPoint x="1153.33" y="218" as="sourcePoint" />
            <mxPoint x="1153.33" y="248" as="targetPoint" />
          </mxGeometry>
        </mxCell>
        <mxCell id="PeHLGWzFGyEWrabVDmBg-718" value="" style="shape=or;whiteSpace=wrap;html=1;aspect=fixed;direction=north;rotation=-180;container=0;" vertex="1" parent="1">
          <mxGeometry x="1113.33" y="240" width="50" height="37.5" as="geometry" />
        </mxCell>
        <mxCell id="PeHLGWzFGyEWrabVDmBg-719" value="" style="endArrow=none;html=1;rounded=0;fillColor=#e1d5e7;strokeColor=#9673a6;movable=1;resizable=1;rotatable=1;deletable=1;editable=1;locked=0;connectable=1;" edge="1" parent="1">
          <mxGeometry width="50" height="50" relative="1" as="geometry">
            <mxPoint x="1128.33" y="180" as="sourcePoint" />
            <mxPoint x="1128.33" y="208" as="targetPoint" />
          </mxGeometry>
        </mxCell>
        <mxCell id="PeHLGWzFGyEWrabVDmBg-721" value="&lt;font style=&quot;font-size: 13px;&quot;&gt;rst&lt;/font&gt;" style="text;html=1;align=center;verticalAlign=middle;whiteSpace=wrap;rounded=0;container=0;" vertex="1" parent="1">
          <mxGeometry x="1073.0000000000002" y="460" width="30" height="20" as="geometry" />
        </mxCell>
        <mxCell id="PeHLGWzFGyEWrabVDmBg-722" value="&lt;font style=&quot;font-size: 13px;&quot;&gt;preset&lt;/font&gt;" style="text;html=1;align=center;verticalAlign=middle;whiteSpace=wrap;rounded=0;container=0;" vertex="1" parent="1">
          <mxGeometry x="1083.0000000000002" y="510" width="30" height="20" as="geometry" />
        </mxCell>
        <mxCell id="PeHLGWzFGyEWrabVDmBg-725" value="&lt;font style=&quot;font-size: 15px;&quot;&gt;Flip_Flop_D&lt;/font&gt;" style="rounded=0;whiteSpace=wrap;html=1;container=0;" vertex="1" parent="1">
          <mxGeometry x="1193.0000000000002" y="400" width="120" height="160" as="geometry" />
        </mxCell>
        <mxCell id="PeHLGWzFGyEWrabVDmBg-726" value="&lt;font style=&quot;font-size: 13px;&quot;&gt;clk&lt;/font&gt;" style="text;html=1;align=center;verticalAlign=middle;whiteSpace=wrap;rounded=0;container=0;" vertex="1" parent="1">
          <mxGeometry x="1113.0000000000002" y="410" width="30" height="20" as="geometry" />
        </mxCell>
        <mxCell id="PeHLGWzFGyEWrabVDmBg-727" value="&lt;font style=&quot;font-size: 13px;&quot;&gt;en&lt;/font&gt;" style="text;html=1;align=center;verticalAlign=middle;whiteSpace=wrap;rounded=0;container=0;" vertex="1" parent="1">
          <mxGeometry x="1113.0000000000002" y="440" width="30" height="20" as="geometry" />
        </mxCell>
        <mxCell id="PeHLGWzFGyEWrabVDmBg-728" value="&lt;font style=&quot;font-size: 13px;&quot;&gt;input&lt;/font&gt;" style="text;html=1;align=center;verticalAlign=middle;whiteSpace=wrap;rounded=0;container=0;" vertex="1" parent="1">
          <mxGeometry x="1140.0000000000002" y="520" width="40" height="20" as="geometry" />
        </mxCell>
        <mxCell id="PeHLGWzFGyEWrabVDmBg-730" value="&lt;font style=&quot;font-size: 13px;&quot;&gt;counter (2)&lt;/font&gt;" style="text;html=1;align=center;verticalAlign=middle;whiteSpace=wrap;rounded=0;container=0;" vertex="1" parent="1">
          <mxGeometry x="1313" y="421.25" width="67" height="20" as="geometry" />
        </mxCell>
        <mxCell id="PeHLGWzFGyEWrabVDmBg-732" value="" style="endArrow=none;html=1;rounded=0;fillColor=#e1d5e7;strokeColor=#9673a6;movable=1;resizable=1;rotatable=1;deletable=1;editable=1;locked=0;connectable=1;" edge="1" parent="1" source="PeHLGWzFGyEWrabVDmBg-733">
          <mxGeometry width="50" height="50" relative="1" as="geometry">
            <mxPoint x="1093.0000000000002" y="660" as="sourcePoint" />
            <mxPoint x="1093.0000000000002" y="630" as="targetPoint" />
          </mxGeometry>
        </mxCell>
        <mxCell id="PeHLGWzFGyEWrabVDmBg-733" value="" style="shape=waypoint;sketch=0;fillStyle=solid;size=6;pointerEvents=1;points=[];fillColor=#e1d5e7;resizable=1;rotatable=1;perimeter=centerPerimeter;snapToPoint=1;strokeColor=#9673a6;movable=1;deletable=1;editable=1;locked=0;connectable=1;rotation=0;container=0;" vertex="1" parent="1">
          <mxGeometry x="1083.0000000000002" y="648" width="20" height="20" as="geometry" />
        </mxCell>
        <mxCell id="PeHLGWzFGyEWrabVDmBg-734" value="" style="endArrow=none;html=1;rounded=0;fillColor=#e1d5e7;strokeColor=#9673a6;movable=1;resizable=1;rotatable=1;deletable=1;editable=1;locked=0;connectable=1;" edge="1" parent="1" source="PeHLGWzFGyEWrabVDmBg-735">
          <mxGeometry width="50" height="50" relative="1" as="geometry">
            <mxPoint x="1063.0000000000002" y="660" as="sourcePoint" />
            <mxPoint x="1063.0000000000002" y="630" as="targetPoint" />
          </mxGeometry>
        </mxCell>
        <mxCell id="PeHLGWzFGyEWrabVDmBg-735" value="" style="shape=waypoint;sketch=0;fillStyle=solid;size=6;pointerEvents=1;points=[];fillColor=#e1d5e7;resizable=1;rotatable=1;perimeter=centerPerimeter;snapToPoint=1;strokeColor=#9673a6;movable=1;deletable=1;editable=1;locked=0;connectable=1;rotation=0;container=0;" vertex="1" parent="1">
          <mxGeometry x="1053.0000000000002" y="648" width="20" height="20" as="geometry" />
        </mxCell>
        <mxCell id="PeHLGWzFGyEWrabVDmBg-736" value="" style="endArrow=none;html=1;rounded=0;entryX=0.005;entryY=0.682;entryDx=0;entryDy=0;entryPerimeter=0;" edge="1" parent="1" target="PeHLGWzFGyEWrabVDmBg-725">
          <mxGeometry width="50" height="50" relative="1" as="geometry">
            <mxPoint x="1078.1100000000001" y="600" as="sourcePoint" />
            <mxPoint x="1190" y="510" as="targetPoint" />
            <Array as="points">
              <mxPoint x="1078" y="509" />
            </Array>
          </mxGeometry>
        </mxCell>
        <mxCell id="PeHLGWzFGyEWrabVDmBg-737" value="" style="endArrow=none;html=1;rounded=0;exitX=0.175;exitY=0.25;exitDx=0;exitDy=0;exitPerimeter=0;" edge="1" parent="1" source="PeHLGWzFGyEWrabVDmBg-738">
          <mxGeometry width="50" height="50" relative="1" as="geometry">
            <mxPoint x="1090" y="327.5" as="sourcePoint" />
            <mxPoint x="1140" y="277.5" as="targetPoint" />
            <Array as="points">
              <mxPoint x="1090" y="290" />
              <mxPoint x="1140" y="290" />
            </Array>
          </mxGeometry>
        </mxCell>
        <mxCell id="PeHLGWzFGyEWrabVDmBg-738" value="" style="shape=xor;whiteSpace=wrap;html=1;aspect=fixed;direction=north;rotation=-180;container=0;" vertex="1" parent="1">
          <mxGeometry x="1050" y="307.5" width="53.33" height="40" as="geometry" />
        </mxCell>
        <mxCell id="PeHLGWzFGyEWrabVDmBg-739" value="" style="verticalLabelPosition=bottom;shadow=0;dashed=0;align=center;html=1;verticalAlign=top;shape=mxgraph.electrical.logic_gates.inverter_2;aspect=fixed;direction=north;rotation=-180;container=0;" vertex="1" parent="1">
          <mxGeometry x="1113.33" y="190" width="30" height="50" as="geometry" />
        </mxCell>
        <mxCell id="PeHLGWzFGyEWrabVDmBg-740" value="" style="endArrow=none;html=1;rounded=0;entryX=1;entryY=0.5;entryDx=0;entryDy=0;entryPerimeter=0;exitX=0;exitY=0.5;exitDx=0;exitDy=0;" edge="1" parent="1" source="PeHLGWzFGyEWrabVDmBg-725" target="PeHLGWzFGyEWrabVDmBg-738">
          <mxGeometry width="50" height="50" relative="1" as="geometry">
            <mxPoint x="1030" y="397.5" as="sourcePoint" />
            <mxPoint x="1080" y="347.5" as="targetPoint" />
            <Array as="points">
              <mxPoint x="1077" y="480" />
            </Array>
          </mxGeometry>
        </mxCell>
        <mxCell id="PeHLGWzFGyEWrabVDmBg-741" value="" style="shape=or;whiteSpace=wrap;html=1;aspect=fixed;direction=north;rotation=0;container=0;" vertex="1" parent="1">
          <mxGeometry x="1053.0000000000002" y="600" width="50" height="37.5" as="geometry" />
        </mxCell>
        <mxCell id="PeHLGWzFGyEWrabVDmBg-707" value="" style="shape=waypoint;sketch=0;fillStyle=solid;size=6;pointerEvents=1;points=[];fillColor=#60a917;resizable=0;rotatable=0;perimeter=centerPerimeter;snapToPoint=1;strokeColor=#2D7600;rotation=-90;container=0;fontColor=#ffffff;" vertex="1" parent="1">
          <mxGeometry x="1141" y="440.25" width="20" height="20" as="geometry" />
        </mxCell>
        <mxCell id="PeHLGWzFGyEWrabVDmBg-708" value="" style="endArrow=none;html=1;rounded=0;fillColor=#60a917;strokeColor=#2D7600;" edge="1" parent="1" source="PeHLGWzFGyEWrabVDmBg-707">
          <mxGeometry width="50" height="50" relative="1" as="geometry">
            <mxPoint x="1169" y="450.25" as="sourcePoint" />
            <mxPoint x="1199" y="450.25" as="targetPoint" />
          </mxGeometry>
        </mxCell>
        <mxCell id="PeHLGWzFGyEWrabVDmBg-745" value="" style="endArrow=none;html=1;rounded=0;fillColor=#e1d5e7;strokeColor=#9673a6;entryX=1;entryY=0.25;entryDx=0;entryDy=0;exitX=0.414;exitY=0.976;exitDx=0;exitDy=0;exitPerimeter=0;" edge="1" parent="1">
          <mxGeometry width="50" height="50" relative="1" as="geometry">
            <mxPoint x="1429" y="440" as="sourcePoint" />
            <mxPoint x="1313.0000000000002" y="440" as="targetPoint" />
          </mxGeometry>
        </mxCell>
        <mxCell id="PeHLGWzFGyEWrabVDmBg-744" value="" style="shape=waypoint;sketch=0;fillStyle=solid;size=6;pointerEvents=1;points=[];fillColor=#e1d5e7;resizable=0;rotatable=0;perimeter=centerPerimeter;snapToPoint=1;strokeColor=#9673a6;rotation=-90;container=0;" vertex="1" parent="1">
          <mxGeometry x="1420" y="430" width="20" height="20" as="geometry" />
        </mxCell>
        <mxCell id="PeHLGWzFGyEWrabVDmBg-754" value="" style="endArrow=none;html=1;rounded=0;entryX=0.002;entryY=0.877;entryDx=0;entryDy=0;entryPerimeter=0;exitX=1;exitY=0.5;exitDx=0;exitDy=0;exitPerimeter=0;" edge="1" parent="1" target="PeHLGWzFGyEWrabVDmBg-766" source="PeHLGWzFGyEWrabVDmBg-954">
          <mxGeometry width="50" height="50" relative="1" as="geometry">
            <mxPoint x="1140" y="620" as="sourcePoint" />
            <mxPoint x="1230" y="510" as="targetPoint" />
            <Array as="points">
              <mxPoint x="1138" y="540" />
            </Array>
          </mxGeometry>
        </mxCell>
        <mxCell id="PeHLGWzFGyEWrabVDmBg-755" value="" style="shape=waypoint;sketch=0;fillStyle=solid;size=6;pointerEvents=1;points=[];fillColor=#e1d5e7;resizable=1;rotatable=1;perimeter=centerPerimeter;snapToPoint=1;strokeColor=#9673a6;movable=1;deletable=1;editable=1;locked=0;connectable=1;rotation=-180;container=0;" vertex="1" parent="1">
          <mxGeometry x="1143.33" y="170" width="20" height="20" as="geometry" />
        </mxCell>
        <mxCell id="PeHLGWzFGyEWrabVDmBg-756" value="" style="endArrow=none;html=1;rounded=0;fillColor=#e3c800;strokeColor=#B09500;movable=1;resizable=1;rotatable=1;deletable=1;editable=1;locked=0;connectable=1;" edge="1" parent="1" source="PeHLGWzFGyEWrabVDmBg-757">
          <mxGeometry width="50" height="50" relative="1" as="geometry">
            <mxPoint x="1063.33" y="288" as="sourcePoint" />
            <mxPoint x="1063.33" y="318" as="targetPoint" />
          </mxGeometry>
        </mxCell>
        <mxCell id="PeHLGWzFGyEWrabVDmBg-757" value="" style="shape=waypoint;sketch=0;fillStyle=solid;size=6;pointerEvents=1;points=[];fillColor=#e3c800;resizable=1;rotatable=1;perimeter=centerPerimeter;snapToPoint=1;strokeColor=#B09500;movable=1;deletable=1;editable=1;locked=0;connectable=1;rotation=-180;container=0;fontColor=#000000;" vertex="1" parent="1">
          <mxGeometry x="1053.33" y="280" width="20" height="20" as="geometry" />
        </mxCell>
        <mxCell id="PeHLGWzFGyEWrabVDmBg-758" value="" style="endArrow=none;html=1;rounded=0;fillColor=#e1d5e7;strokeColor=#9673a6;movable=1;resizable=1;rotatable=1;deletable=1;editable=1;locked=0;connectable=1;" edge="1" parent="1" source="PeHLGWzFGyEWrabVDmBg-755">
          <mxGeometry width="50" height="50" relative="1" as="geometry">
            <mxPoint x="1153.33" y="218" as="sourcePoint" />
            <mxPoint x="1153.33" y="248" as="targetPoint" />
          </mxGeometry>
        </mxCell>
        <mxCell id="PeHLGWzFGyEWrabVDmBg-759" value="" style="shape=or;whiteSpace=wrap;html=1;aspect=fixed;direction=north;rotation=-180;container=0;" vertex="1" parent="1">
          <mxGeometry x="1113.33" y="240" width="50" height="37.5" as="geometry" />
        </mxCell>
        <mxCell id="PeHLGWzFGyEWrabVDmBg-760" value="" style="endArrow=none;html=1;rounded=0;fillColor=#a0522d;strokeColor=#6D1F00;movable=1;resizable=1;rotatable=1;deletable=1;editable=1;locked=0;connectable=1;" edge="1" parent="1" source="PeHLGWzFGyEWrabVDmBg-761">
          <mxGeometry width="50" height="50" relative="1" as="geometry">
            <mxPoint x="1128.33" y="178" as="sourcePoint" />
            <mxPoint x="1128.33" y="208" as="targetPoint" />
          </mxGeometry>
        </mxCell>
        <mxCell id="PeHLGWzFGyEWrabVDmBg-762" value="&lt;font style=&quot;font-size: 13px;&quot;&gt;rst&lt;/font&gt;" style="text;html=1;align=center;verticalAlign=middle;whiteSpace=wrap;rounded=0;container=0;" vertex="1" parent="1">
          <mxGeometry x="1073.0000000000002" y="460" width="30" height="20" as="geometry" />
        </mxCell>
        <mxCell id="PeHLGWzFGyEWrabVDmBg-763" value="&lt;font style=&quot;font-size: 13px;&quot;&gt;preset&lt;/font&gt;" style="text;html=1;align=center;verticalAlign=middle;whiteSpace=wrap;rounded=0;container=0;" vertex="1" parent="1">
          <mxGeometry x="1083.0000000000002" y="510" width="30" height="20" as="geometry" />
        </mxCell>
        <mxCell id="PeHLGWzFGyEWrabVDmBg-766" value="&lt;font style=&quot;font-size: 15px;&quot;&gt;Flip_Flop_D&lt;/font&gt;&lt;div&gt;&lt;font style=&quot;font-size: 15px;&quot;&gt;2&lt;/font&gt;&lt;/div&gt;" style="rounded=0;whiteSpace=wrap;html=1;container=0;" vertex="1" parent="1">
          <mxGeometry x="1193.0000000000002" y="400" width="120" height="160" as="geometry" />
        </mxCell>
        <mxCell id="PeHLGWzFGyEWrabVDmBg-767" value="&lt;font style=&quot;font-size: 13px;&quot;&gt;clk&lt;/font&gt;" style="text;html=1;align=center;verticalAlign=middle;whiteSpace=wrap;rounded=0;container=0;" vertex="1" parent="1">
          <mxGeometry x="1113.0000000000002" y="410" width="30" height="20" as="geometry" />
        </mxCell>
        <mxCell id="PeHLGWzFGyEWrabVDmBg-768" value="&lt;font style=&quot;font-size: 13px;&quot;&gt;en&lt;/font&gt;" style="text;html=1;align=center;verticalAlign=middle;whiteSpace=wrap;rounded=0;container=0;" vertex="1" parent="1">
          <mxGeometry x="1113.0000000000002" y="440" width="30" height="20" as="geometry" />
        </mxCell>
        <mxCell id="PeHLGWzFGyEWrabVDmBg-773" value="" style="endArrow=none;html=1;rounded=0;fillColor=#e1d5e7;strokeColor=#9673a6;movable=1;resizable=1;rotatable=1;deletable=1;editable=1;locked=0;connectable=1;" edge="1" parent="1" source="PeHLGWzFGyEWrabVDmBg-774">
          <mxGeometry width="50" height="50" relative="1" as="geometry">
            <mxPoint x="1093.0000000000002" y="660" as="sourcePoint" />
            <mxPoint x="1093.0000000000002" y="630" as="targetPoint" />
          </mxGeometry>
        </mxCell>
        <mxCell id="PeHLGWzFGyEWrabVDmBg-774" value="" style="shape=waypoint;sketch=0;fillStyle=solid;size=6;pointerEvents=1;points=[];fillColor=#e1d5e7;resizable=1;rotatable=1;perimeter=centerPerimeter;snapToPoint=1;strokeColor=#9673a6;movable=1;deletable=1;editable=1;locked=0;connectable=1;rotation=0;container=0;" vertex="1" parent="1">
          <mxGeometry x="1083.0000000000002" y="648" width="20" height="20" as="geometry" />
        </mxCell>
        <mxCell id="PeHLGWzFGyEWrabVDmBg-775" value="" style="endArrow=none;html=1;rounded=0;fillColor=#a0522d;strokeColor=#6D1F00;movable=1;resizable=1;rotatable=1;deletable=1;editable=1;locked=0;connectable=1;" edge="1" parent="1" source="PeHLGWzFGyEWrabVDmBg-776">
          <mxGeometry width="50" height="50" relative="1" as="geometry">
            <mxPoint x="1063.0000000000002" y="660" as="sourcePoint" />
            <mxPoint x="1063.0000000000002" y="630" as="targetPoint" />
          </mxGeometry>
        </mxCell>
        <mxCell id="PeHLGWzFGyEWrabVDmBg-776" value="" style="shape=waypoint;sketch=0;fillStyle=solid;size=6;pointerEvents=1;points=[];fillColor=#a0522d;resizable=1;rotatable=1;perimeter=centerPerimeter;snapToPoint=1;strokeColor=#6D1F00;movable=1;deletable=1;editable=1;locked=0;connectable=1;rotation=0;container=0;fontColor=#ffffff;" vertex="1" parent="1">
          <mxGeometry x="1053.0000000000002" y="648" width="20" height="20" as="geometry" />
        </mxCell>
        <mxCell id="PeHLGWzFGyEWrabVDmBg-777" value="" style="endArrow=none;html=1;rounded=0;entryX=0.005;entryY=0.682;entryDx=0;entryDy=0;entryPerimeter=0;" edge="1" parent="1" target="PeHLGWzFGyEWrabVDmBg-766">
          <mxGeometry width="50" height="50" relative="1" as="geometry">
            <mxPoint x="1078.1100000000001" y="600" as="sourcePoint" />
            <mxPoint x="1190" y="510" as="targetPoint" />
            <Array as="points">
              <mxPoint x="1078" y="509" />
            </Array>
          </mxGeometry>
        </mxCell>
        <mxCell id="PeHLGWzFGyEWrabVDmBg-778" value="" style="endArrow=none;html=1;rounded=0;exitX=0.175;exitY=0.25;exitDx=0;exitDy=0;exitPerimeter=0;" edge="1" parent="1" source="PeHLGWzFGyEWrabVDmBg-779">
          <mxGeometry width="50" height="50" relative="1" as="geometry">
            <mxPoint x="1090" y="327.5" as="sourcePoint" />
            <mxPoint x="1140" y="277.5" as="targetPoint" />
            <Array as="points">
              <mxPoint x="1090" y="290" />
              <mxPoint x="1140" y="290" />
            </Array>
          </mxGeometry>
        </mxCell>
        <mxCell id="PeHLGWzFGyEWrabVDmBg-779" value="" style="shape=xor;whiteSpace=wrap;html=1;aspect=fixed;direction=north;rotation=-180;container=0;" vertex="1" parent="1">
          <mxGeometry x="1050" y="307.5" width="53.33" height="40" as="geometry" />
        </mxCell>
        <mxCell id="PeHLGWzFGyEWrabVDmBg-780" value="" style="verticalLabelPosition=bottom;shadow=0;dashed=0;align=center;html=1;verticalAlign=top;shape=mxgraph.electrical.logic_gates.inverter_2;aspect=fixed;direction=north;rotation=-180;container=0;" vertex="1" parent="1">
          <mxGeometry x="1113.33" y="190" width="30" height="50" as="geometry" />
        </mxCell>
        <mxCell id="PeHLGWzFGyEWrabVDmBg-781" value="" style="endArrow=none;html=1;rounded=0;entryX=1;entryY=0.5;entryDx=0;entryDy=0;entryPerimeter=0;exitX=0;exitY=0.5;exitDx=0;exitDy=0;" edge="1" parent="1" source="PeHLGWzFGyEWrabVDmBg-766" target="PeHLGWzFGyEWrabVDmBg-779">
          <mxGeometry width="50" height="50" relative="1" as="geometry">
            <mxPoint x="1030" y="397.5" as="sourcePoint" />
            <mxPoint x="1080" y="347.5" as="targetPoint" />
            <Array as="points">
              <mxPoint x="1077" y="480" />
            </Array>
          </mxGeometry>
        </mxCell>
        <mxCell id="PeHLGWzFGyEWrabVDmBg-782" value="" style="shape=or;whiteSpace=wrap;html=1;aspect=fixed;direction=north;rotation=0;container=0;" vertex="1" parent="1">
          <mxGeometry x="1053.0000000000002" y="600" width="50" height="37.5" as="geometry" />
        </mxCell>
        <mxCell id="PeHLGWzFGyEWrabVDmBg-786" value="" style="endArrow=none;html=1;rounded=0;fillColor=#0050ef;strokeColor=#001DBC;entryX=1;entryY=0.25;entryDx=0;entryDy=0;exitX=0.414;exitY=0.976;exitDx=0;exitDy=0;exitPerimeter=0;" edge="1" parent="1">
          <mxGeometry width="50" height="50" relative="1" as="geometry">
            <mxPoint x="1429" y="440" as="sourcePoint" />
            <mxPoint x="1313.0000000000002" y="440" as="targetPoint" />
          </mxGeometry>
        </mxCell>
        <mxCell id="PeHLGWzFGyEWrabVDmBg-785" value="" style="shape=waypoint;sketch=0;fillStyle=solid;size=6;pointerEvents=1;points=[];fillColor=#0050ef;resizable=0;rotatable=0;perimeter=centerPerimeter;snapToPoint=1;strokeColor=#001DBC;rotation=-90;container=0;fontColor=#ffffff;" vertex="1" parent="1">
          <mxGeometry x="1420" y="430" width="20" height="20" as="geometry" />
        </mxCell>
        <mxCell id="PeHLGWzFGyEWrabVDmBg-877" value="" style="endArrow=none;html=1;rounded=0;entryX=0.002;entryY=0.877;entryDx=0;entryDy=0;entryPerimeter=0;exitX=1;exitY=0.5;exitDx=0;exitDy=0;exitPerimeter=0;" edge="1" parent="1" target="PeHLGWzFGyEWrabVDmBg-889" source="PeHLGWzFGyEWrabVDmBg-977">
          <mxGeometry width="50" height="50" relative="1" as="geometry">
            <mxPoint x="1640" y="540" as="sourcePoint" />
            <mxPoint x="1730" y="510" as="targetPoint" />
            <Array as="points">
              <mxPoint x="1638" y="540" />
            </Array>
          </mxGeometry>
        </mxCell>
        <mxCell id="PeHLGWzFGyEWrabVDmBg-878" value="" style="shape=waypoint;sketch=0;fillStyle=solid;size=6;pointerEvents=1;points=[];fillColor=#e1d5e7;resizable=1;rotatable=1;perimeter=centerPerimeter;snapToPoint=1;strokeColor=#9673a6;movable=1;deletable=1;editable=1;locked=0;connectable=1;rotation=-180;container=0;" vertex="1" parent="1">
          <mxGeometry x="1643.33" y="170" width="20" height="20" as="geometry" />
        </mxCell>
        <mxCell id="PeHLGWzFGyEWrabVDmBg-879" value="" style="endArrow=none;html=1;rounded=0;fillColor=#e3c800;strokeColor=#B09500;movable=1;resizable=1;rotatable=1;deletable=1;editable=1;locked=0;connectable=1;" edge="1" parent="1" source="PeHLGWzFGyEWrabVDmBg-880">
          <mxGeometry width="50" height="50" relative="1" as="geometry">
            <mxPoint x="1563.33" y="288" as="sourcePoint" />
            <mxPoint x="1563.33" y="318" as="targetPoint" />
          </mxGeometry>
        </mxCell>
        <mxCell id="PeHLGWzFGyEWrabVDmBg-880" value="" style="shape=waypoint;sketch=0;fillStyle=solid;size=6;pointerEvents=1;points=[];fillColor=#e3c800;resizable=1;rotatable=1;perimeter=centerPerimeter;snapToPoint=1;strokeColor=#B09500;movable=1;deletable=1;editable=1;locked=0;connectable=1;rotation=-180;container=0;fontColor=#000000;" vertex="1" parent="1">
          <mxGeometry x="1553.33" y="280" width="20" height="20" as="geometry" />
        </mxCell>
        <mxCell id="PeHLGWzFGyEWrabVDmBg-881" value="" style="endArrow=none;html=1;rounded=0;fillColor=#e1d5e7;strokeColor=#9673a6;movable=1;resizable=1;rotatable=1;deletable=1;editable=1;locked=0;connectable=1;" edge="1" parent="1" source="PeHLGWzFGyEWrabVDmBg-878">
          <mxGeometry width="50" height="50" relative="1" as="geometry">
            <mxPoint x="1653.33" y="218" as="sourcePoint" />
            <mxPoint x="1653.33" y="248" as="targetPoint" />
          </mxGeometry>
        </mxCell>
        <mxCell id="PeHLGWzFGyEWrabVDmBg-882" value="" style="shape=or;whiteSpace=wrap;html=1;aspect=fixed;direction=north;rotation=-180;container=0;" vertex="1" parent="1">
          <mxGeometry x="1613.33" y="240" width="50" height="37.5" as="geometry" />
        </mxCell>
        <mxCell id="PeHLGWzFGyEWrabVDmBg-883" value="" style="endArrow=none;html=1;rounded=0;fillColor=#e1d5e7;strokeColor=#9673a6;movable=1;resizable=1;rotatable=1;deletable=1;editable=1;locked=0;connectable=1;" edge="1" parent="1" source="PeHLGWzFGyEWrabVDmBg-903">
          <mxGeometry width="50" height="50" relative="1" as="geometry">
            <mxPoint x="1628.33" y="178" as="sourcePoint" />
            <mxPoint x="1628.33" y="208" as="targetPoint" />
          </mxGeometry>
        </mxCell>
        <mxCell id="PeHLGWzFGyEWrabVDmBg-884" value="" style="shape=waypoint;sketch=0;fillStyle=solid;size=6;pointerEvents=1;points=[];fillColor=#a0522d;resizable=1;rotatable=1;perimeter=centerPerimeter;snapToPoint=1;strokeColor=#6D1F00;movable=1;deletable=1;editable=1;locked=0;connectable=1;rotation=-180;container=0;fontColor=#ffffff;" vertex="1" parent="1">
          <mxGeometry x="1618.33" y="170" width="20" height="20" as="geometry" />
        </mxCell>
        <mxCell id="PeHLGWzFGyEWrabVDmBg-885" value="&lt;font style=&quot;font-size: 13px;&quot;&gt;rst&lt;/font&gt;" style="text;html=1;align=center;verticalAlign=middle;whiteSpace=wrap;rounded=0;container=0;" vertex="1" parent="1">
          <mxGeometry x="1573.0000000000002" y="460" width="30" height="20" as="geometry" />
        </mxCell>
        <mxCell id="PeHLGWzFGyEWrabVDmBg-886" value="&lt;font style=&quot;font-size: 13px;&quot;&gt;preset&lt;/font&gt;" style="text;html=1;align=center;verticalAlign=middle;whiteSpace=wrap;rounded=0;container=0;" vertex="1" parent="1">
          <mxGeometry x="1583.0000000000002" y="510" width="30" height="20" as="geometry" />
        </mxCell>
        <mxCell id="PeHLGWzFGyEWrabVDmBg-889" value="&lt;font style=&quot;font-size: 15px;&quot;&gt;Flip_Flop_D&lt;/font&gt;&lt;div&gt;&lt;font style=&quot;font-size: 15px;&quot;&gt;3&lt;/font&gt;&lt;/div&gt;" style="rounded=0;whiteSpace=wrap;html=1;container=0;" vertex="1" parent="1">
          <mxGeometry x="1693.0000000000002" y="400" width="120" height="160" as="geometry" />
        </mxCell>
        <mxCell id="PeHLGWzFGyEWrabVDmBg-890" value="&lt;font style=&quot;font-size: 13px;&quot;&gt;clk&lt;/font&gt;" style="text;html=1;align=center;verticalAlign=middle;whiteSpace=wrap;rounded=0;container=0;" vertex="1" parent="1">
          <mxGeometry x="1613.0000000000002" y="410" width="30" height="20" as="geometry" />
        </mxCell>
        <mxCell id="PeHLGWzFGyEWrabVDmBg-891" value="&lt;font style=&quot;font-size: 13px;&quot;&gt;en&lt;/font&gt;" style="text;html=1;align=center;verticalAlign=middle;whiteSpace=wrap;rounded=0;container=0;" vertex="1" parent="1">
          <mxGeometry x="1613.0000000000002" y="440" width="30" height="20" as="geometry" />
        </mxCell>
        <mxCell id="PeHLGWzFGyEWrabVDmBg-892" value="&lt;font style=&quot;font-size: 13px;&quot;&gt;input&lt;/font&gt;" style="text;html=1;align=center;verticalAlign=middle;whiteSpace=wrap;rounded=0;container=0;" vertex="1" parent="1">
          <mxGeometry x="1640.0000000000002" y="520" width="40" height="20" as="geometry" />
        </mxCell>
        <mxCell id="PeHLGWzFGyEWrabVDmBg-894" value="&lt;font style=&quot;font-size: 13px;&quot;&gt;counter(3)&lt;/font&gt;" style="text;html=1;align=center;verticalAlign=middle;whiteSpace=wrap;rounded=0;container=0;" vertex="1" parent="1">
          <mxGeometry x="1830.0000000000002" y="420" width="40" height="20" as="geometry" />
        </mxCell>
        <mxCell id="PeHLGWzFGyEWrabVDmBg-896" value="" style="endArrow=none;html=1;rounded=0;fillColor=#e1d5e7;strokeColor=#9673a6;movable=1;resizable=1;rotatable=1;deletable=1;editable=1;locked=0;connectable=1;" edge="1" parent="1" source="PeHLGWzFGyEWrabVDmBg-897">
          <mxGeometry width="50" height="50" relative="1" as="geometry">
            <mxPoint x="1593.0000000000002" y="660" as="sourcePoint" />
            <mxPoint x="1593.0000000000002" y="630" as="targetPoint" />
          </mxGeometry>
        </mxCell>
        <mxCell id="PeHLGWzFGyEWrabVDmBg-897" value="" style="shape=waypoint;sketch=0;fillStyle=solid;size=6;pointerEvents=1;points=[];fillColor=#e1d5e7;resizable=1;rotatable=1;perimeter=centerPerimeter;snapToPoint=1;strokeColor=#9673a6;movable=1;deletable=1;editable=1;locked=0;connectable=1;rotation=0;container=0;" vertex="1" parent="1">
          <mxGeometry x="1583.0000000000002" y="648" width="20" height="20" as="geometry" />
        </mxCell>
        <mxCell id="PeHLGWzFGyEWrabVDmBg-898" value="" style="endArrow=none;html=1;rounded=0;fillColor=#a0522d;strokeColor=#6D1F00;movable=1;resizable=1;rotatable=1;deletable=1;editable=1;locked=0;connectable=1;" edge="1" parent="1" source="PeHLGWzFGyEWrabVDmBg-899">
          <mxGeometry width="50" height="50" relative="1" as="geometry">
            <mxPoint x="1563.0000000000002" y="660" as="sourcePoint" />
            <mxPoint x="1563.0000000000002" y="630" as="targetPoint" />
          </mxGeometry>
        </mxCell>
        <mxCell id="PeHLGWzFGyEWrabVDmBg-899" value="" style="shape=waypoint;sketch=0;fillStyle=solid;size=6;pointerEvents=1;points=[];fillColor=#a0522d;resizable=1;rotatable=1;perimeter=centerPerimeter;snapToPoint=1;strokeColor=#6D1F00;movable=1;deletable=1;editable=1;locked=0;connectable=1;rotation=0;container=0;fontColor=#ffffff;" vertex="1" parent="1">
          <mxGeometry x="1553.0000000000002" y="648" width="20" height="20" as="geometry" />
        </mxCell>
        <mxCell id="PeHLGWzFGyEWrabVDmBg-900" value="" style="endArrow=none;html=1;rounded=0;entryX=0.005;entryY=0.682;entryDx=0;entryDy=0;entryPerimeter=0;" edge="1" parent="1" target="PeHLGWzFGyEWrabVDmBg-889">
          <mxGeometry width="50" height="50" relative="1" as="geometry">
            <mxPoint x="1578.1100000000001" y="600" as="sourcePoint" />
            <mxPoint x="1690" y="510" as="targetPoint" />
            <Array as="points">
              <mxPoint x="1578" y="509" />
            </Array>
          </mxGeometry>
        </mxCell>
        <mxCell id="PeHLGWzFGyEWrabVDmBg-901" value="" style="endArrow=none;html=1;rounded=0;exitX=0.175;exitY=0.25;exitDx=0;exitDy=0;exitPerimeter=0;" edge="1" parent="1" source="PeHLGWzFGyEWrabVDmBg-902">
          <mxGeometry width="50" height="50" relative="1" as="geometry">
            <mxPoint x="1590" y="327.5" as="sourcePoint" />
            <mxPoint x="1640" y="277.5" as="targetPoint" />
            <Array as="points">
              <mxPoint x="1590" y="290" />
              <mxPoint x="1640" y="290" />
            </Array>
          </mxGeometry>
        </mxCell>
        <mxCell id="PeHLGWzFGyEWrabVDmBg-902" value="" style="shape=xor;whiteSpace=wrap;html=1;aspect=fixed;direction=north;rotation=-180;container=0;" vertex="1" parent="1">
          <mxGeometry x="1550" y="307.5" width="53.33" height="40" as="geometry" />
        </mxCell>
        <mxCell id="PeHLGWzFGyEWrabVDmBg-904" value="" style="endArrow=none;html=1;rounded=0;entryX=1;entryY=0.5;entryDx=0;entryDy=0;entryPerimeter=0;exitX=0;exitY=0.5;exitDx=0;exitDy=0;" edge="1" parent="1" source="PeHLGWzFGyEWrabVDmBg-889" target="PeHLGWzFGyEWrabVDmBg-902">
          <mxGeometry width="50" height="50" relative="1" as="geometry">
            <mxPoint x="1530" y="397.5" as="sourcePoint" />
            <mxPoint x="1580" y="347.5" as="targetPoint" />
            <Array as="points">
              <mxPoint x="1577" y="480" />
            </Array>
          </mxGeometry>
        </mxCell>
        <mxCell id="PeHLGWzFGyEWrabVDmBg-905" value="" style="shape=or;whiteSpace=wrap;html=1;aspect=fixed;direction=north;rotation=0;container=0;" vertex="1" parent="1">
          <mxGeometry x="1553.0000000000002" y="600" width="50" height="37.5" as="geometry" />
        </mxCell>
        <mxCell id="PeHLGWzFGyEWrabVDmBg-909" value="" style="endArrow=none;html=1;rounded=0;fillColor=#0050ef;strokeColor=#001DBC;entryX=1;entryY=0.25;entryDx=0;entryDy=0;exitX=0.414;exitY=0.976;exitDx=0;exitDy=0;exitPerimeter=0;" edge="1" parent="1">
          <mxGeometry width="50" height="50" relative="1" as="geometry">
            <mxPoint x="1929" y="440" as="sourcePoint" />
            <mxPoint x="1813.0000000000002" y="440" as="targetPoint" />
          </mxGeometry>
        </mxCell>
        <mxCell id="PeHLGWzFGyEWrabVDmBg-908" value="" style="shape=waypoint;sketch=0;fillStyle=solid;size=6;pointerEvents=1;points=[];fillColor=#0050ef;resizable=0;rotatable=0;perimeter=centerPerimeter;snapToPoint=1;strokeColor=#001DBC;rotation=-90;container=0;fontColor=#ffffff;" vertex="1" parent="1">
          <mxGeometry x="1920" y="430" width="20" height="20" as="geometry" />
        </mxCell>
        <mxCell id="PeHLGWzFGyEWrabVDmBg-918" value="" style="endArrow=none;html=1;rounded=0;entryX=0.002;entryY=0.877;entryDx=0;entryDy=0;entryPerimeter=0;exitX=1;exitY=0.5;exitDx=0;exitDy=0;exitPerimeter=0;" edge="1" parent="1" source="PeHLGWzFGyEWrabVDmBg-981">
          <mxGeometry width="50" height="50" relative="1" as="geometry">
            <mxPoint x="2149.76" y="540" as="sourcePoint" />
            <mxPoint x="2203" y="540.32" as="targetPoint" />
            <Array as="points">
              <mxPoint x="2148" y="540" />
            </Array>
          </mxGeometry>
        </mxCell>
        <mxCell id="PeHLGWzFGyEWrabVDmBg-919" value="" style="shape=waypoint;sketch=0;fillStyle=solid;size=6;pointerEvents=1;points=[];fillColor=#e1d5e7;resizable=1;rotatable=1;perimeter=centerPerimeter;snapToPoint=1;strokeColor=#9673a6;movable=1;deletable=1;editable=1;locked=0;connectable=1;rotation=-180;container=0;" vertex="1" parent="1">
          <mxGeometry x="2153.33" y="170" width="20" height="20" as="geometry" />
        </mxCell>
        <mxCell id="PeHLGWzFGyEWrabVDmBg-920" value="" style="endArrow=none;html=1;rounded=0;fillColor=#e3c800;strokeColor=#B09500;movable=1;resizable=1;rotatable=1;deletable=1;editable=1;locked=0;connectable=1;" edge="1" parent="1" source="PeHLGWzFGyEWrabVDmBg-921">
          <mxGeometry width="50" height="50" relative="1" as="geometry">
            <mxPoint x="2073.33" y="288" as="sourcePoint" />
            <mxPoint x="2073.33" y="318" as="targetPoint" />
          </mxGeometry>
        </mxCell>
        <mxCell id="PeHLGWzFGyEWrabVDmBg-921" value="" style="shape=waypoint;sketch=0;fillStyle=solid;size=6;pointerEvents=1;points=[];fillColor=#e3c800;resizable=1;rotatable=1;perimeter=centerPerimeter;snapToPoint=1;strokeColor=#B09500;movable=1;deletable=1;editable=1;locked=0;connectable=1;rotation=-180;container=0;fontColor=#000000;" vertex="1" parent="1">
          <mxGeometry x="2063.33" y="280" width="20" height="20" as="geometry" />
        </mxCell>
        <mxCell id="PeHLGWzFGyEWrabVDmBg-922" value="" style="endArrow=none;html=1;rounded=0;fillColor=#e1d5e7;strokeColor=#9673a6;movable=1;resizable=1;rotatable=1;deletable=1;editable=1;locked=0;connectable=1;" edge="1" parent="1" source="PeHLGWzFGyEWrabVDmBg-919">
          <mxGeometry width="50" height="50" relative="1" as="geometry">
            <mxPoint x="2163.33" y="218" as="sourcePoint" />
            <mxPoint x="2163.33" y="248" as="targetPoint" />
          </mxGeometry>
        </mxCell>
        <mxCell id="PeHLGWzFGyEWrabVDmBg-923" value="" style="shape=or;whiteSpace=wrap;html=1;aspect=fixed;direction=north;rotation=-180;container=0;" vertex="1" parent="1">
          <mxGeometry x="2123.33" y="240" width="50" height="37.5" as="geometry" />
        </mxCell>
        <mxCell id="PeHLGWzFGyEWrabVDmBg-924" value="" style="endArrow=none;html=1;rounded=0;fillColor=#a0522d;strokeColor=#6D1F00;movable=1;resizable=1;rotatable=1;deletable=1;editable=1;locked=0;connectable=1;" edge="1" parent="1" source="PeHLGWzFGyEWrabVDmBg-925">
          <mxGeometry width="50" height="50" relative="1" as="geometry">
            <mxPoint x="2138.33" y="178" as="sourcePoint" />
            <mxPoint x="2138.33" y="208" as="targetPoint" />
          </mxGeometry>
        </mxCell>
        <mxCell id="PeHLGWzFGyEWrabVDmBg-926" value="&lt;font style=&quot;font-size: 13px;&quot;&gt;rst&lt;/font&gt;" style="text;html=1;align=center;verticalAlign=middle;whiteSpace=wrap;rounded=0;container=0;" vertex="1" parent="1">
          <mxGeometry x="2083" y="460" width="30" height="20" as="geometry" />
        </mxCell>
        <mxCell id="PeHLGWzFGyEWrabVDmBg-927" value="&lt;font style=&quot;font-size: 13px;&quot;&gt;preset&lt;/font&gt;" style="text;html=1;align=center;verticalAlign=middle;whiteSpace=wrap;rounded=0;container=0;" vertex="1" parent="1">
          <mxGeometry x="2093" y="510" width="30" height="20" as="geometry" />
        </mxCell>
        <mxCell id="PeHLGWzFGyEWrabVDmBg-930" value="&lt;font style=&quot;font-size: 15px;&quot;&gt;Flip_Flop_D&lt;/font&gt;&lt;div&gt;&lt;font style=&quot;font-size: 15px;&quot;&gt;4&lt;/font&gt;&lt;/div&gt;" style="rounded=0;whiteSpace=wrap;html=1;container=0;" vertex="1" parent="1">
          <mxGeometry x="2203" y="400" width="120" height="160" as="geometry" />
        </mxCell>
        <mxCell id="PeHLGWzFGyEWrabVDmBg-931" value="&lt;font style=&quot;font-size: 13px;&quot;&gt;clk&lt;/font&gt;" style="text;html=1;align=center;verticalAlign=middle;whiteSpace=wrap;rounded=0;container=0;" vertex="1" parent="1">
          <mxGeometry x="2123" y="410" width="30" height="20" as="geometry" />
        </mxCell>
        <mxCell id="PeHLGWzFGyEWrabVDmBg-932" value="&lt;font style=&quot;font-size: 13px;&quot;&gt;en&lt;/font&gt;" style="text;html=1;align=center;verticalAlign=middle;whiteSpace=wrap;rounded=0;container=0;" vertex="1" parent="1">
          <mxGeometry x="2123" y="440" width="30" height="20" as="geometry" />
        </mxCell>
        <mxCell id="PeHLGWzFGyEWrabVDmBg-933" value="&lt;font style=&quot;font-size: 13px;&quot;&gt;input&lt;/font&gt;" style="text;html=1;align=center;verticalAlign=middle;whiteSpace=wrap;rounded=0;container=0;" vertex="1" parent="1">
          <mxGeometry x="2150" y="520" width="40" height="20" as="geometry" />
        </mxCell>
        <mxCell id="PeHLGWzFGyEWrabVDmBg-935" value="&lt;font style=&quot;font-size: 13px;&quot;&gt;counter(4)&lt;/font&gt;" style="text;html=1;align=center;verticalAlign=middle;whiteSpace=wrap;rounded=0;container=0;" vertex="1" parent="1">
          <mxGeometry x="2340" y="420.25" width="40" height="20" as="geometry" />
        </mxCell>
        <mxCell id="PeHLGWzFGyEWrabVDmBg-937" value="" style="endArrow=none;html=1;rounded=0;fillColor=#e1d5e7;strokeColor=#9673a6;movable=1;resizable=1;rotatable=1;deletable=1;editable=1;locked=0;connectable=1;" edge="1" parent="1" source="PeHLGWzFGyEWrabVDmBg-938">
          <mxGeometry width="50" height="50" relative="1" as="geometry">
            <mxPoint x="2103" y="660" as="sourcePoint" />
            <mxPoint x="2103" y="630" as="targetPoint" />
          </mxGeometry>
        </mxCell>
        <mxCell id="PeHLGWzFGyEWrabVDmBg-938" value="" style="shape=waypoint;sketch=0;fillStyle=solid;size=6;pointerEvents=1;points=[];fillColor=#e1d5e7;resizable=1;rotatable=1;perimeter=centerPerimeter;snapToPoint=1;strokeColor=#9673a6;movable=1;deletable=1;editable=1;locked=0;connectable=1;rotation=0;container=0;" vertex="1" parent="1">
          <mxGeometry x="2093" y="648" width="20" height="20" as="geometry" />
        </mxCell>
        <mxCell id="PeHLGWzFGyEWrabVDmBg-939" value="" style="endArrow=none;html=1;rounded=0;fillColor=#a0522d;strokeColor=#6D1F00;movable=1;resizable=1;rotatable=1;deletable=1;editable=1;locked=0;connectable=1;" edge="1" parent="1" source="PeHLGWzFGyEWrabVDmBg-940">
          <mxGeometry width="50" height="50" relative="1" as="geometry">
            <mxPoint x="2073" y="660" as="sourcePoint" />
            <mxPoint x="2073" y="630" as="targetPoint" />
          </mxGeometry>
        </mxCell>
        <mxCell id="PeHLGWzFGyEWrabVDmBg-940" value="" style="shape=waypoint;sketch=0;fillStyle=solid;size=6;pointerEvents=1;points=[];fillColor=#a0522d;resizable=1;rotatable=1;perimeter=centerPerimeter;snapToPoint=1;strokeColor=#6D1F00;movable=1;deletable=1;editable=1;locked=0;connectable=1;rotation=0;container=0;fontColor=#ffffff;" vertex="1" parent="1">
          <mxGeometry x="2063" y="648" width="20" height="20" as="geometry" />
        </mxCell>
        <mxCell id="PeHLGWzFGyEWrabVDmBg-941" value="" style="endArrow=none;html=1;rounded=0;entryX=0.005;entryY=0.682;entryDx=0;entryDy=0;entryPerimeter=0;" edge="1" parent="1" target="PeHLGWzFGyEWrabVDmBg-930">
          <mxGeometry width="50" height="50" relative="1" as="geometry">
            <mxPoint x="2088.11" y="600" as="sourcePoint" />
            <mxPoint x="2200" y="510" as="targetPoint" />
            <Array as="points">
              <mxPoint x="2088" y="509" />
            </Array>
          </mxGeometry>
        </mxCell>
        <mxCell id="PeHLGWzFGyEWrabVDmBg-942" value="" style="endArrow=none;html=1;rounded=0;exitX=0.175;exitY=0.25;exitDx=0;exitDy=0;exitPerimeter=0;" edge="1" parent="1" source="PeHLGWzFGyEWrabVDmBg-943">
          <mxGeometry width="50" height="50" relative="1" as="geometry">
            <mxPoint x="2100" y="327.5" as="sourcePoint" />
            <mxPoint x="2150" y="277.5" as="targetPoint" />
            <Array as="points">
              <mxPoint x="2100" y="290" />
              <mxPoint x="2150" y="290" />
            </Array>
          </mxGeometry>
        </mxCell>
        <mxCell id="PeHLGWzFGyEWrabVDmBg-943" value="" style="shape=xor;whiteSpace=wrap;html=1;aspect=fixed;direction=north;rotation=-180;container=0;" vertex="1" parent="1">
          <mxGeometry x="2060" y="307.5" width="53.33" height="40" as="geometry" />
        </mxCell>
        <mxCell id="PeHLGWzFGyEWrabVDmBg-944" value="" style="verticalLabelPosition=bottom;shadow=0;dashed=0;align=center;html=1;verticalAlign=top;shape=mxgraph.electrical.logic_gates.inverter_2;aspect=fixed;direction=north;rotation=-180;container=0;" vertex="1" parent="1">
          <mxGeometry x="2123.33" y="190" width="30" height="50" as="geometry" />
        </mxCell>
        <mxCell id="PeHLGWzFGyEWrabVDmBg-945" value="" style="endArrow=none;html=1;rounded=0;entryX=1;entryY=0.5;entryDx=0;entryDy=0;entryPerimeter=0;exitX=0;exitY=0.5;exitDx=0;exitDy=0;" edge="1" parent="1" source="PeHLGWzFGyEWrabVDmBg-930" target="PeHLGWzFGyEWrabVDmBg-943">
          <mxGeometry width="50" height="50" relative="1" as="geometry">
            <mxPoint x="2040" y="397.5" as="sourcePoint" />
            <mxPoint x="2090" y="347.5" as="targetPoint" />
            <Array as="points">
              <mxPoint x="2087" y="480" />
            </Array>
          </mxGeometry>
        </mxCell>
        <mxCell id="PeHLGWzFGyEWrabVDmBg-946" value="" style="shape=or;whiteSpace=wrap;html=1;aspect=fixed;direction=north;rotation=0;container=0;" vertex="1" parent="1">
          <mxGeometry x="2063" y="600" width="50" height="37.5" as="geometry" />
        </mxCell>
        <mxCell id="PeHLGWzFGyEWrabVDmBg-950" value="" style="endArrow=none;html=1;rounded=0;fillColor=#0050ef;strokeColor=#001DBC;entryX=1;entryY=0.25;entryDx=0;entryDy=0;exitX=0.414;exitY=0.976;exitDx=0;exitDy=0;exitPerimeter=0;" edge="1" parent="1">
          <mxGeometry width="50" height="50" relative="1" as="geometry">
            <mxPoint x="2439" y="440" as="sourcePoint" />
            <mxPoint x="2323" y="440" as="targetPoint" />
          </mxGeometry>
        </mxCell>
        <mxCell id="PeHLGWzFGyEWrabVDmBg-949" value="" style="shape=waypoint;sketch=0;fillStyle=solid;size=6;pointerEvents=1;points=[];fillColor=#0050ef;resizable=0;rotatable=0;perimeter=centerPerimeter;snapToPoint=1;strokeColor=#001DBC;rotation=-90;container=0;fontColor=#ffffff;" vertex="1" parent="1">
          <mxGeometry x="2430" y="430" width="20" height="20" as="geometry" />
        </mxCell>
        <mxCell id="PeHLGWzFGyEWrabVDmBg-971" value="" style="endArrow=none;html=1;rounded=0;exitX=0.014;exitY=0.737;exitDx=0;exitDy=0;exitPerimeter=0;" edge="1" parent="1" source="PeHLGWzFGyEWrabVDmBg-954">
          <mxGeometry width="50" height="50" relative="1" as="geometry">
            <mxPoint x="1230" y="580" as="sourcePoint" />
            <mxPoint x="1400" y="440" as="targetPoint" />
            <Array as="points">
              <mxPoint x="1400" y="730" />
            </Array>
          </mxGeometry>
        </mxCell>
        <mxCell id="PeHLGWzFGyEWrabVDmBg-972" value="" style="shape=or;whiteSpace=wrap;html=1;aspect=fixed;direction=north;rotation=90;container=0;" vertex="1" parent="1">
          <mxGeometry x="1490.0000000000002" y="760" width="50" height="37.5" as="geometry" />
        </mxCell>
        <mxCell id="PeHLGWzFGyEWrabVDmBg-975" value="" style="endArrow=none;html=1;rounded=0;entryX=0;entryY=0.75;entryDx=0;entryDy=0;entryPerimeter=0;" edge="1" parent="1" target="PeHLGWzFGyEWrabVDmBg-972">
          <mxGeometry width="50" height="50" relative="1" as="geometry">
            <mxPoint x="1120" y="780" as="sourcePoint" />
            <mxPoint x="1270" y="700" as="targetPoint" />
            <Array as="points">
              <mxPoint x="1120" y="790" />
            </Array>
          </mxGeometry>
        </mxCell>
        <mxCell id="PeHLGWzFGyEWrabVDmBg-976" value="" style="endArrow=none;html=1;rounded=0;exitX=0;exitY=0.25;exitDx=0;exitDy=0;exitPerimeter=0;" edge="1" parent="1" source="PeHLGWzFGyEWrabVDmBg-972">
          <mxGeometry width="50" height="50" relative="1" as="geometry">
            <mxPoint x="1420" y="730" as="sourcePoint" />
            <mxPoint x="1390" y="730" as="targetPoint" />
            <Array as="points">
              <mxPoint x="1390" y="766" />
            </Array>
          </mxGeometry>
        </mxCell>
        <mxCell id="PeHLGWzFGyEWrabVDmBg-977" value="" style="verticalLabelPosition=bottom;shadow=0;dashed=0;align=center;html=1;verticalAlign=top;shape=mxgraph.electrical.logic_gates.logic_gate;operation=xor;aspect=fixed;rotation=-90;container=0;" vertex="1" parent="1">
          <mxGeometry x="1603.3300000000002" y="676.67" width="70" height="40" as="geometry" />
        </mxCell>
        <mxCell id="PeHLGWzFGyEWrabVDmBg-979" value="" style="endArrow=none;html=1;rounded=0;entryX=0;entryY=0.25;entryDx=0;entryDy=0;entryPerimeter=0;" edge="1" parent="1" target="PeHLGWzFGyEWrabVDmBg-977">
          <mxGeometry width="50" height="50" relative="1" as="geometry">
            <mxPoint x="1533" y="780" as="sourcePoint" />
            <mxPoint x="1583" y="730" as="targetPoint" />
            <Array as="points">
              <mxPoint x="1628" y="780" />
            </Array>
          </mxGeometry>
        </mxCell>
        <mxCell id="PeHLGWzFGyEWrabVDmBg-980" value="" style="endArrow=none;html=1;rounded=0;exitX=0;exitY=0.75;exitDx=0;exitDy=0;exitPerimeter=0;" edge="1" parent="1" source="PeHLGWzFGyEWrabVDmBg-977">
          <mxGeometry width="50" height="50" relative="1" as="geometry">
            <mxPoint x="1670" y="610" as="sourcePoint" />
            <mxPoint x="1900" y="440" as="targetPoint" />
            <Array as="points">
              <mxPoint x="1900" y="730" />
            </Array>
          </mxGeometry>
        </mxCell>
        <mxCell id="PeHLGWzFGyEWrabVDmBg-981" value="" style="verticalLabelPosition=bottom;shadow=0;dashed=0;align=center;html=1;verticalAlign=top;shape=mxgraph.electrical.logic_gates.logic_gate;operation=xor;aspect=fixed;rotation=-90;container=0;" vertex="1" parent="1">
          <mxGeometry x="2113.33" y="676.67" width="70" height="40" as="geometry" />
        </mxCell>
        <mxCell id="PeHLGWzFGyEWrabVDmBg-982" value="" style="shape=or;whiteSpace=wrap;html=1;aspect=fixed;direction=north;rotation=90;container=0;" vertex="1" parent="1">
          <mxGeometry x="1990.0000000000002" y="760" width="50" height="37.5" as="geometry" />
        </mxCell>
        <mxCell id="PeHLGWzFGyEWrabVDmBg-983" value="" style="endArrow=none;html=1;rounded=0;entryX=0;entryY=0.75;entryDx=0;entryDy=0;entryPerimeter=0;" edge="1" parent="1" target="PeHLGWzFGyEWrabVDmBg-982">
          <mxGeometry width="50" height="50" relative="1" as="geometry">
            <mxPoint x="1620" y="780" as="sourcePoint" />
            <mxPoint x="1720" y="470" as="targetPoint" />
            <Array as="points">
              <mxPoint x="1620" y="790" />
            </Array>
          </mxGeometry>
        </mxCell>
        <mxCell id="PeHLGWzFGyEWrabVDmBg-984" value="" style="endArrow=none;html=1;rounded=0;exitX=0;exitY=0.25;exitDx=0;exitDy=0;exitPerimeter=0;" edge="1" parent="1" source="PeHLGWzFGyEWrabVDmBg-982">
          <mxGeometry width="50" height="50" relative="1" as="geometry">
            <mxPoint x="1580" y="630" as="sourcePoint" />
            <mxPoint x="1890" y="730" as="targetPoint" />
            <Array as="points">
              <mxPoint x="1890" y="766" />
            </Array>
          </mxGeometry>
        </mxCell>
        <mxCell id="PeHLGWzFGyEWrabVDmBg-986" value="" style="endArrow=none;html=1;rounded=0;entryX=0;entryY=0.25;entryDx=0;entryDy=0;entryPerimeter=0;" edge="1" parent="1" target="PeHLGWzFGyEWrabVDmBg-981">
          <mxGeometry width="50" height="50" relative="1" as="geometry">
            <mxPoint x="2033.33" y="780" as="sourcePoint" />
            <mxPoint x="2083.33" y="730" as="targetPoint" />
            <Array as="points">
              <mxPoint x="2138" y="780" />
            </Array>
          </mxGeometry>
        </mxCell>
        <mxCell id="PeHLGWzFGyEWrabVDmBg-987" value="" style="endArrow=none;html=1;rounded=0;exitX=0;exitY=0.75;exitDx=0;exitDy=0;exitPerimeter=0;" edge="1" parent="1" source="PeHLGWzFGyEWrabVDmBg-981">
          <mxGeometry width="50" height="50" relative="1" as="geometry">
            <mxPoint x="2363" y="490" as="sourcePoint" />
            <mxPoint x="2410" y="440" as="targetPoint" />
            <Array as="points">
              <mxPoint x="2410" y="730" />
            </Array>
          </mxGeometry>
        </mxCell>
        <mxCell id="PeHLGWzFGyEWrabVDmBg-992" value="" style="endArrow=none;html=1;rounded=0;fillColor=#a0522d;strokeColor=#6D1F00;movable=1;resizable=1;rotatable=1;deletable=1;editable=1;locked=0;connectable=1;" edge="1" parent="1" source="PeHLGWzFGyEWrabVDmBg-884" target="PeHLGWzFGyEWrabVDmBg-903">
          <mxGeometry width="50" height="50" relative="1" as="geometry">
            <mxPoint x="1628" y="180" as="sourcePoint" />
            <mxPoint x="1628.33" y="208" as="targetPoint" />
          </mxGeometry>
        </mxCell>
        <mxCell id="PeHLGWzFGyEWrabVDmBg-903" value="" style="verticalLabelPosition=bottom;shadow=0;dashed=0;align=center;html=1;verticalAlign=top;shape=mxgraph.electrical.logic_gates.inverter_2;aspect=fixed;direction=north;rotation=-180;container=0;" vertex="1" parent="1">
          <mxGeometry x="1613.33" y="190" width="30" height="50" as="geometry" />
        </mxCell>
        <mxCell id="PeHLGWzFGyEWrabVDmBg-993" value="&lt;font style=&quot;font-size: 13px;&quot;&gt;v_set(0)&lt;/font&gt;" style="text;html=1;align=center;verticalAlign=middle;whiteSpace=wrap;rounded=0;container=0;" vertex="1" parent="1">
          <mxGeometry x="161.0000000000002" y="160" width="30" height="20" as="geometry" />
        </mxCell>
        <mxCell id="PeHLGWzFGyEWrabVDmBg-994" value="&lt;font style=&quot;font-size: 13px;&quot;&gt;v_set(1&lt;/font&gt;&lt;span style=&quot;font-size: 13px; background-color: initial;&quot;&gt;)&lt;/span&gt;" style="text;html=1;align=center;verticalAlign=middle;whiteSpace=wrap;rounded=0;container=0;" vertex="1" parent="1">
          <mxGeometry x="663.3300000000002" y="160" width="30" height="20" as="geometry" />
        </mxCell>
        <mxCell id="PeHLGWzFGyEWrabVDmBg-995" value="&lt;font style=&quot;font-size: 13px;&quot;&gt;v_set(1)&lt;/font&gt;" style="text;html=1;align=center;verticalAlign=middle;whiteSpace=wrap;rounded=0;container=0;" vertex="1" parent="1">
          <mxGeometry x="588.3300000000002" y="660" width="30" height="20" as="geometry" />
        </mxCell>
        <mxCell id="PeHLGWzFGyEWrabVDmBg-996" value="&lt;font style=&quot;font-size: 13px;&quot;&gt;v_set(2&lt;/font&gt;&lt;span style=&quot;font-size: 13px; background-color: initial;&quot;&gt;)&lt;/span&gt;" style="text;html=1;align=center;verticalAlign=middle;whiteSpace=wrap;rounded=0;container=0;" vertex="1" parent="1">
          <mxGeometry x="1100.0000000000002" y="660" width="30" height="20" as="geometry" />
        </mxCell>
        <mxCell id="PeHLGWzFGyEWrabVDmBg-997" value="&lt;font style=&quot;font-size: 13px;&quot;&gt;v_set(3)&lt;/font&gt;" style="text;html=1;align=center;verticalAlign=middle;whiteSpace=wrap;rounded=0;container=0;" vertex="1" parent="1">
          <mxGeometry x="1675" y="160" width="30" height="20" as="geometry" />
        </mxCell>
        <mxCell id="PeHLGWzFGyEWrabVDmBg-998" value="&lt;font style=&quot;font-size: 13px;&quot;&gt;v_set(3)&lt;/font&gt;" style="text;html=1;align=center;verticalAlign=middle;whiteSpace=wrap;rounded=0;container=0;" vertex="1" parent="1">
          <mxGeometry x="1600" y="660" width="30" height="20" as="geometry" />
        </mxCell>
        <mxCell id="PeHLGWzFGyEWrabVDmBg-999" value="&lt;font style=&quot;font-size: 13px;&quot;&gt;v_set(2)&lt;/font&gt;" style="text;html=1;align=center;verticalAlign=middle;whiteSpace=wrap;rounded=0;container=0;" vertex="1" parent="1">
          <mxGeometry x="1161.0000000000002" y="160" width="30" height="20" as="geometry" />
        </mxCell>
        <mxCell id="PeHLGWzFGyEWrabVDmBg-1000" value="&lt;font style=&quot;font-size: 13px;&quot;&gt;v_set(4)&lt;/font&gt;" style="text;html=1;align=center;verticalAlign=middle;whiteSpace=wrap;rounded=0;container=0;" vertex="1" parent="1">
          <mxGeometry x="2102.8300000000004" y="660" width="30" height="20" as="geometry" />
        </mxCell>
        <mxCell id="PeHLGWzFGyEWrabVDmBg-1001" value="&lt;font style=&quot;font-size: 13px;&quot;&gt;v_set(4)&lt;/font&gt;" style="text;html=1;align=center;verticalAlign=middle;whiteSpace=wrap;rounded=0;container=0;" vertex="1" parent="1">
          <mxGeometry x="2163.8300000000004" y="160" width="30" height="20" as="geometry" />
        </mxCell>
        <mxCell id="PeHLGWzFGyEWrabVDmBg-1005" value="" style="shape=waypoint;sketch=0;fillStyle=solid;size=6;pointerEvents=1;points=[];fillColor=#e51400;resizable=0;rotatable=0;perimeter=centerPerimeter;snapToPoint=1;strokeColor=#B20000;rotation=90;container=0;fontColor=#ffffff;" vertex="1" parent="1">
          <mxGeometry x="-9" y="169" width="20" height="20" as="geometry" />
        </mxCell>
        <mxCell id="PeHLGWzFGyEWrabVDmBg-1026" value="" style="shape=waypoint;sketch=0;fillStyle=solid;size=6;pointerEvents=1;points=[];fillColor=#e3c800;resizable=0;rotatable=0;perimeter=centerPerimeter;snapToPoint=1;strokeColor=#B09500;rotation=90;container=0;fontColor=#000000;" vertex="1" parent="1">
          <mxGeometry x="-10" y="269" width="20" height="20" as="geometry" />
        </mxCell>
        <mxCell id="PeHLGWzFGyEWrabVDmBg-1029" value="" style="shape=waypoint;sketch=0;fillStyle=solid;size=6;pointerEvents=1;points=[];fillColor=#a0522d;resizable=0;rotatable=0;perimeter=centerPerimeter;snapToPoint=1;strokeColor=#6D1F00;rotation=90;container=0;fontColor=#ffffff;" vertex="1" parent="1">
          <mxGeometry x="-10" y="317.5" width="20" height="20" as="geometry" />
        </mxCell>
        <mxCell id="PeHLGWzFGyEWrabVDmBg-1036" value="&lt;font style=&quot;font-size: 13px;&quot;&gt;clk&lt;/font&gt;" style="text;html=1;align=center;verticalAlign=middle;whiteSpace=wrap;rounded=0;container=0;" vertex="1" parent="1">
          <mxGeometry x="-39.9999999999998" y="170" width="30" height="20" as="geometry" />
        </mxCell>
        <mxCell id="PeHLGWzFGyEWrabVDmBg-1038" value="&lt;font style=&quot;font-size: 13px;&quot;&gt;en&lt;/font&gt;" style="text;html=1;align=center;verticalAlign=middle;whiteSpace=wrap;rounded=0;container=0;" vertex="1" parent="1">
          <mxGeometry x="-38.9999999999998" y="219" width="30" height="20" as="geometry" />
        </mxCell>
        <mxCell id="PeHLGWzFGyEWrabVDmBg-1039" value="&lt;font style=&quot;font-size: 13px;&quot;&gt;rst&lt;/font&gt;" style="text;html=1;align=center;verticalAlign=middle;whiteSpace=wrap;rounded=0;container=0;" vertex="1" parent="1">
          <mxGeometry x="-38.9999999999998" y="269" width="30" height="20" as="geometry" />
        </mxCell>
        <mxCell id="PeHLGWzFGyEWrabVDmBg-1040" value="&lt;font style=&quot;font-size: 13px;&quot;&gt;set&lt;/font&gt;" style="text;html=1;align=center;verticalAlign=middle;whiteSpace=wrap;rounded=0;container=0;" vertex="1" parent="1">
          <mxGeometry x="-37.9999999999998" y="318" width="30" height="20" as="geometry" />
        </mxCell>
        <mxCell id="PeHLGWzFGyEWrabVDmBg-1042" value="&lt;font style=&quot;font-size: 13px;&quot;&gt;v_set&lt;/font&gt;" style="text;html=1;align=center;verticalAlign=middle;whiteSpace=wrap;rounded=0;container=0;" vertex="1" parent="1">
          <mxGeometry x="-37.9999999999998" y="360" width="30" height="20" as="geometry" />
        </mxCell>
        <mxCell id="PeHLGWzFGyEWrabVDmBg-1043" value="&lt;font style=&quot;font-size: 10px;&quot;&gt;6&lt;/font&gt;" style="text;html=1;align=center;verticalAlign=middle;whiteSpace=wrap;rounded=0;container=0;" vertex="1" parent="1">
          <mxGeometry x="1" y="347.5" width="40" height="20" as="geometry" />
        </mxCell>
        <mxCell id="PeHLGWzFGyEWrabVDmBg-1081" value="" style="shape=or;whiteSpace=wrap;html=1;aspect=fixed;direction=north;rotation=90;container=0;" vertex="1" parent="1">
          <mxGeometry x="2510" y="760" width="50" height="37.5" as="geometry" />
        </mxCell>
        <mxCell id="PeHLGWzFGyEWrabVDmBg-1082" value="" style="endArrow=none;html=1;rounded=0;entryX=0;entryY=0.75;entryDx=0;entryDy=0;entryPerimeter=0;" edge="1" parent="1" target="PeHLGWzFGyEWrabVDmBg-1081">
          <mxGeometry width="50" height="50" relative="1" as="geometry">
            <mxPoint x="2130" y="780" as="sourcePoint" />
            <mxPoint x="2170" y="630" as="targetPoint" />
            <Array as="points">
              <mxPoint x="2130" y="791" />
            </Array>
          </mxGeometry>
        </mxCell>
        <mxCell id="PeHLGWzFGyEWrabVDmBg-1083" value="" style="endArrow=none;html=1;rounded=0;exitX=0;exitY=0.25;exitDx=0;exitDy=0;exitPerimeter=0;" edge="1" parent="1" source="PeHLGWzFGyEWrabVDmBg-1081">
          <mxGeometry width="50" height="50" relative="1" as="geometry">
            <mxPoint x="2130" y="720" as="sourcePoint" />
            <mxPoint x="2400" y="730" as="targetPoint" />
            <Array as="points">
              <mxPoint x="2400" y="766" />
            </Array>
          </mxGeometry>
        </mxCell>
        <mxCell id="PeHLGWzFGyEWrabVDmBg-1090" value="&lt;font style=&quot;font-size: 13px;&quot;&gt;counter&lt;/font&gt;" style="text;html=1;align=center;verticalAlign=middle;whiteSpace=wrap;rounded=0;container=0;" vertex="1" parent="1">
          <mxGeometry x="3057" y="410" width="40" height="20" as="geometry" />
        </mxCell>
        <mxCell id="PeHLGWzFGyEWrabVDmBg-1092" value="&lt;font style=&quot;font-size: 10px;&quot;&gt;6&lt;/font&gt;" style="text;html=1;align=center;verticalAlign=middle;whiteSpace=wrap;rounded=0;container=0;" vertex="1" parent="1">
          <mxGeometry x="3057" y="440" width="40" height="20" as="geometry" />
        </mxCell>
        <mxCell id="PeHLGWzFGyEWrabVDmBg-1100" value="" style="endArrow=none;html=1;rounded=0;fillColor=#e1d5e7;strokeColor=#000000;" edge="1" parent="1">
          <mxGeometry width="50" height="50" relative="1" as="geometry">
            <mxPoint x="3110" y="560" as="sourcePoint" />
            <mxPoint x="3040" y="560" as="targetPoint" />
          </mxGeometry>
        </mxCell>
        <mxCell id="PeHLGWzFGyEWrabVDmBg-1101" value="" style="shape=waypoint;sketch=0;fillStyle=solid;size=6;pointerEvents=1;points=[];fillColor=#e1d5e7;resizable=0;rotatable=0;perimeter=centerPerimeter;snapToPoint=1;strokeColor=#000000;" vertex="1" parent="1">
          <mxGeometry x="3100" y="550" width="20" height="20" as="geometry" />
        </mxCell>
        <mxCell id="PeHLGWzFGyEWrabVDmBg-1102" value="" style="endArrow=none;html=1;rounded=0;" edge="1" parent="1">
          <mxGeometry width="50" height="50" relative="1" as="geometry">
            <mxPoint x="3040" y="560" as="sourcePoint" />
            <mxPoint x="2926.67" y="560" as="targetPoint" />
          </mxGeometry>
        </mxCell>
        <mxCell id="PeHLGWzFGyEWrabVDmBg-1044" value="" style="shape=waypoint;sketch=0;fillStyle=solid;size=6;pointerEvents=1;points=[];fillColor=#a0522d;resizable=1;rotatable=1;perimeter=centerPerimeter;snapToPoint=1;strokeColor=#6D1F00;movable=1;deletable=1;editable=1;locked=0;connectable=1;rotation=-180;container=0;fontColor=#ffffff;" vertex="1" parent="1">
          <mxGeometry x="2645" y="170" width="20" height="20" as="geometry" />
        </mxCell>
        <mxCell id="PeHLGWzFGyEWrabVDmBg-1045" value="" style="shape=waypoint;sketch=0;fillStyle=solid;size=6;pointerEvents=1;points=[];fillColor=#60a917;resizable=0;rotatable=0;perimeter=centerPerimeter;snapToPoint=1;strokeColor=#2D7600;rotation=-90;container=0;fontColor=#ffffff;" vertex="1" parent="1">
          <mxGeometry x="2667.67" y="440.25" width="20" height="20" as="geometry" />
        </mxCell>
        <mxCell id="PeHLGWzFGyEWrabVDmBg-1046" value="" style="endArrow=none;html=1;rounded=0;fillColor=#60a917;strokeColor=#2D7600;" edge="1" parent="1" source="PeHLGWzFGyEWrabVDmBg-1045">
          <mxGeometry width="50" height="50" relative="1" as="geometry">
            <mxPoint x="2695.67" y="450.25" as="sourcePoint" />
            <mxPoint x="2725.67" y="450.25" as="targetPoint" />
          </mxGeometry>
        </mxCell>
        <mxCell id="PeHLGWzFGyEWrabVDmBg-1047" value="" style="endArrow=none;html=1;rounded=0;fillColor=#e51400;strokeColor=#B20000;" edge="1" parent="1" source="PeHLGWzFGyEWrabVDmBg-1048">
          <mxGeometry width="50" height="50" relative="1" as="geometry">
            <mxPoint x="2695.67" y="419" as="sourcePoint" />
            <mxPoint x="2725.67" y="419" as="targetPoint" />
          </mxGeometry>
        </mxCell>
        <mxCell id="PeHLGWzFGyEWrabVDmBg-1048" value="" style="shape=waypoint;sketch=0;fillStyle=solid;size=6;pointerEvents=1;points=[];fillColor=#e51400;resizable=0;rotatable=0;perimeter=centerPerimeter;snapToPoint=1;strokeColor=#B20000;rotation=90;container=0;fontColor=#ffffff;" vertex="1" parent="1">
          <mxGeometry x="2667.67" y="409" width="20" height="20" as="geometry" />
        </mxCell>
        <mxCell id="PeHLGWzFGyEWrabVDmBg-1049" value="" style="endArrow=none;html=1;rounded=0;entryX=0.002;entryY=0.877;entryDx=0;entryDy=0;entryPerimeter=0;exitX=1;exitY=0.5;exitDx=0;exitDy=0;exitPerimeter=0;" edge="1" parent="1" source="PeHLGWzFGyEWrabVDmBg-1075">
          <mxGeometry width="50" height="50" relative="1" as="geometry">
            <mxPoint x="2666.4300000000003" y="540" as="sourcePoint" />
            <mxPoint x="2719.67" y="540.32" as="targetPoint" />
            <Array as="points">
              <mxPoint x="2664.67" y="540" />
            </Array>
          </mxGeometry>
        </mxCell>
        <mxCell id="PeHLGWzFGyEWrabVDmBg-1050" value="" style="shape=waypoint;sketch=0;fillStyle=solid;size=6;pointerEvents=1;points=[];fillColor=#e1d5e7;resizable=1;rotatable=1;perimeter=centerPerimeter;snapToPoint=1;strokeColor=#9673a6;movable=1;deletable=1;editable=1;locked=0;connectable=1;rotation=-180;container=0;" vertex="1" parent="1">
          <mxGeometry x="2670" y="170" width="20" height="20" as="geometry" />
        </mxCell>
        <mxCell id="PeHLGWzFGyEWrabVDmBg-1051" value="" style="endArrow=none;html=1;rounded=0;fillColor=#e3c800;strokeColor=#B09500;movable=1;resizable=1;rotatable=1;deletable=1;editable=1;locked=0;connectable=1;" edge="1" parent="1" source="PeHLGWzFGyEWrabVDmBg-1052">
          <mxGeometry width="50" height="50" relative="1" as="geometry">
            <mxPoint x="2590" y="288" as="sourcePoint" />
            <mxPoint x="2590" y="318" as="targetPoint" />
          </mxGeometry>
        </mxCell>
        <mxCell id="PeHLGWzFGyEWrabVDmBg-1052" value="" style="shape=waypoint;sketch=0;fillStyle=solid;size=6;pointerEvents=1;points=[];fillColor=#e3c800;resizable=1;rotatable=1;perimeter=centerPerimeter;snapToPoint=1;strokeColor=#B09500;movable=1;deletable=1;editable=1;locked=0;connectable=1;rotation=-180;container=0;fontColor=#000000;" vertex="1" parent="1">
          <mxGeometry x="2580" y="280" width="20" height="20" as="geometry" />
        </mxCell>
        <mxCell id="PeHLGWzFGyEWrabVDmBg-1053" value="" style="endArrow=none;html=1;rounded=0;fillColor=#e1d5e7;strokeColor=#9673a6;movable=1;resizable=1;rotatable=1;deletable=1;editable=1;locked=0;connectable=1;" edge="1" parent="1" source="PeHLGWzFGyEWrabVDmBg-1050">
          <mxGeometry width="50" height="50" relative="1" as="geometry">
            <mxPoint x="2680" y="218" as="sourcePoint" />
            <mxPoint x="2680" y="248" as="targetPoint" />
          </mxGeometry>
        </mxCell>
        <mxCell id="PeHLGWzFGyEWrabVDmBg-1054" value="" style="shape=or;whiteSpace=wrap;html=1;aspect=fixed;direction=north;rotation=-180;container=0;" vertex="1" parent="1">
          <mxGeometry x="2640" y="240" width="50" height="37.5" as="geometry" />
        </mxCell>
        <mxCell id="PeHLGWzFGyEWrabVDmBg-1055" value="" style="endArrow=none;html=1;rounded=0;fillColor=#a0522d;strokeColor=#6D1F00;movable=1;resizable=1;rotatable=1;deletable=1;editable=1;locked=0;connectable=1;" edge="1" parent="1" source="PeHLGWzFGyEWrabVDmBg-1044">
          <mxGeometry width="50" height="50" relative="1" as="geometry">
            <mxPoint x="2655" y="178" as="sourcePoint" />
            <mxPoint x="2655" y="208" as="targetPoint" />
          </mxGeometry>
        </mxCell>
        <mxCell id="PeHLGWzFGyEWrabVDmBg-1056" value="&lt;font style=&quot;font-size: 13px;&quot;&gt;rst&lt;/font&gt;" style="text;html=1;align=center;verticalAlign=middle;whiteSpace=wrap;rounded=0;container=0;" vertex="1" parent="1">
          <mxGeometry x="2599.67" y="460" width="30" height="20" as="geometry" />
        </mxCell>
        <mxCell id="PeHLGWzFGyEWrabVDmBg-1057" value="&lt;font style=&quot;font-size: 13px;&quot;&gt;preset&lt;/font&gt;" style="text;html=1;align=center;verticalAlign=middle;whiteSpace=wrap;rounded=0;container=0;" vertex="1" parent="1">
          <mxGeometry x="2609.67" y="510" width="30" height="20" as="geometry" />
        </mxCell>
        <mxCell id="PeHLGWzFGyEWrabVDmBg-1058" value="&lt;font style=&quot;font-size: 15px;&quot;&gt;Flip_Flop_D&lt;/font&gt;&lt;div&gt;&lt;span style=&quot;font-size: 15px;&quot;&gt;5&lt;/span&gt;&lt;/div&gt;" style="rounded=0;whiteSpace=wrap;html=1;container=0;" vertex="1" parent="1">
          <mxGeometry x="2719.67" y="400" width="120" height="160" as="geometry" />
        </mxCell>
        <mxCell id="PeHLGWzFGyEWrabVDmBg-1059" value="&lt;font style=&quot;font-size: 13px;&quot;&gt;clk&lt;/font&gt;" style="text;html=1;align=center;verticalAlign=middle;whiteSpace=wrap;rounded=0;container=0;" vertex="1" parent="1">
          <mxGeometry x="2639.67" y="410" width="30" height="20" as="geometry" />
        </mxCell>
        <mxCell id="PeHLGWzFGyEWrabVDmBg-1060" value="&lt;font style=&quot;font-size: 13px;&quot;&gt;en&lt;/font&gt;" style="text;html=1;align=center;verticalAlign=middle;whiteSpace=wrap;rounded=0;container=0;" vertex="1" parent="1">
          <mxGeometry x="2639.67" y="440" width="30" height="20" as="geometry" />
        </mxCell>
        <mxCell id="PeHLGWzFGyEWrabVDmBg-1061" value="&lt;font style=&quot;font-size: 13px;&quot;&gt;input&lt;/font&gt;" style="text;html=1;align=center;verticalAlign=middle;whiteSpace=wrap;rounded=0;container=0;" vertex="1" parent="1">
          <mxGeometry x="2666.67" y="520" width="40" height="20" as="geometry" />
        </mxCell>
        <mxCell id="PeHLGWzFGyEWrabVDmBg-1062" value="&lt;font style=&quot;font-size: 13px;&quot;&gt;counter(5)&lt;/font&gt;" style="text;html=1;align=center;verticalAlign=middle;whiteSpace=wrap;rounded=0;container=0;" vertex="1" parent="1">
          <mxGeometry x="2856.67" y="420.25" width="40" height="20" as="geometry" />
        </mxCell>
        <mxCell id="PeHLGWzFGyEWrabVDmBg-1063" value="" style="endArrow=none;html=1;rounded=0;fillColor=#e1d5e7;strokeColor=#9673a6;movable=1;resizable=1;rotatable=1;deletable=1;editable=1;locked=0;connectable=1;" edge="1" parent="1" source="PeHLGWzFGyEWrabVDmBg-1064">
          <mxGeometry width="50" height="50" relative="1" as="geometry">
            <mxPoint x="2619.67" y="660" as="sourcePoint" />
            <mxPoint x="2619.67" y="630" as="targetPoint" />
          </mxGeometry>
        </mxCell>
        <mxCell id="PeHLGWzFGyEWrabVDmBg-1064" value="" style="shape=waypoint;sketch=0;fillStyle=solid;size=6;pointerEvents=1;points=[];fillColor=#e1d5e7;resizable=1;rotatable=1;perimeter=centerPerimeter;snapToPoint=1;strokeColor=#9673a6;movable=1;deletable=1;editable=1;locked=0;connectable=1;rotation=0;container=0;" vertex="1" parent="1">
          <mxGeometry x="2609.67" y="648" width="20" height="20" as="geometry" />
        </mxCell>
        <mxCell id="PeHLGWzFGyEWrabVDmBg-1065" value="" style="endArrow=none;html=1;rounded=0;fillColor=#a0522d;strokeColor=#6D1F00;movable=1;resizable=1;rotatable=1;deletable=1;editable=1;locked=0;connectable=1;" edge="1" parent="1" source="PeHLGWzFGyEWrabVDmBg-1066">
          <mxGeometry width="50" height="50" relative="1" as="geometry">
            <mxPoint x="2589.67" y="660" as="sourcePoint" />
            <mxPoint x="2589.67" y="630" as="targetPoint" />
          </mxGeometry>
        </mxCell>
        <mxCell id="PeHLGWzFGyEWrabVDmBg-1066" value="" style="shape=waypoint;sketch=0;fillStyle=solid;size=6;pointerEvents=1;points=[];fillColor=#a0522d;resizable=1;rotatable=1;perimeter=centerPerimeter;snapToPoint=1;strokeColor=#6D1F00;movable=1;deletable=1;editable=1;locked=0;connectable=1;rotation=0;container=0;fontColor=#ffffff;" vertex="1" parent="1">
          <mxGeometry x="2579.67" y="648" width="20" height="20" as="geometry" />
        </mxCell>
        <mxCell id="PeHLGWzFGyEWrabVDmBg-1067" value="" style="endArrow=none;html=1;rounded=0;entryX=0.005;entryY=0.682;entryDx=0;entryDy=0;entryPerimeter=0;" edge="1" parent="1" target="PeHLGWzFGyEWrabVDmBg-1058">
          <mxGeometry width="50" height="50" relative="1" as="geometry">
            <mxPoint x="2604.78" y="600" as="sourcePoint" />
            <mxPoint x="2716.67" y="510" as="targetPoint" />
            <Array as="points">
              <mxPoint x="2604.67" y="509" />
            </Array>
          </mxGeometry>
        </mxCell>
        <mxCell id="PeHLGWzFGyEWrabVDmBg-1068" value="" style="endArrow=none;html=1;rounded=0;exitX=0.175;exitY=0.25;exitDx=0;exitDy=0;exitPerimeter=0;" edge="1" parent="1" source="PeHLGWzFGyEWrabVDmBg-1069">
          <mxGeometry width="50" height="50" relative="1" as="geometry">
            <mxPoint x="2616.67" y="327.5" as="sourcePoint" />
            <mxPoint x="2666.67" y="277.5" as="targetPoint" />
            <Array as="points">
              <mxPoint x="2616.67" y="290" />
              <mxPoint x="2666.67" y="290" />
            </Array>
          </mxGeometry>
        </mxCell>
        <mxCell id="PeHLGWzFGyEWrabVDmBg-1069" value="" style="shape=xor;whiteSpace=wrap;html=1;aspect=fixed;direction=north;rotation=-180;container=0;" vertex="1" parent="1">
          <mxGeometry x="2576.67" y="307.5" width="53.33" height="40" as="geometry" />
        </mxCell>
        <mxCell id="PeHLGWzFGyEWrabVDmBg-1070" value="" style="verticalLabelPosition=bottom;shadow=0;dashed=0;align=center;html=1;verticalAlign=top;shape=mxgraph.electrical.logic_gates.inverter_2;aspect=fixed;direction=north;rotation=-180;container=0;" vertex="1" parent="1">
          <mxGeometry x="2640" y="190" width="30" height="50" as="geometry" />
        </mxCell>
        <mxCell id="PeHLGWzFGyEWrabVDmBg-1071" value="" style="endArrow=none;html=1;rounded=0;entryX=1;entryY=0.5;entryDx=0;entryDy=0;entryPerimeter=0;exitX=0;exitY=0.5;exitDx=0;exitDy=0;" edge="1" parent="1" source="PeHLGWzFGyEWrabVDmBg-1058" target="PeHLGWzFGyEWrabVDmBg-1069">
          <mxGeometry width="50" height="50" relative="1" as="geometry">
            <mxPoint x="2556.67" y="397.5" as="sourcePoint" />
            <mxPoint x="2606.67" y="347.5" as="targetPoint" />
            <Array as="points">
              <mxPoint x="2603.67" y="480" />
            </Array>
          </mxGeometry>
        </mxCell>
        <mxCell id="PeHLGWzFGyEWrabVDmBg-1072" value="" style="shape=or;whiteSpace=wrap;html=1;aspect=fixed;direction=north;rotation=0;container=0;" vertex="1" parent="1">
          <mxGeometry x="2579.67" y="600" width="50" height="37.5" as="geometry" />
        </mxCell>
        <mxCell id="PeHLGWzFGyEWrabVDmBg-1073" value="" style="endArrow=none;html=1;rounded=0;fillColor=#0050ef;strokeColor=#001DBC;entryX=1;entryY=0.25;entryDx=0;entryDy=0;exitX=0.414;exitY=0.976;exitDx=0;exitDy=0;exitPerimeter=0;" edge="1" parent="1">
          <mxGeometry width="50" height="50" relative="1" as="geometry">
            <mxPoint x="2955.67" y="440" as="sourcePoint" />
            <mxPoint x="2839.67" y="440" as="targetPoint" />
          </mxGeometry>
        </mxCell>
        <mxCell id="PeHLGWzFGyEWrabVDmBg-1074" value="" style="shape=waypoint;sketch=0;fillStyle=solid;size=6;pointerEvents=1;points=[];fillColor=#0050ef;resizable=0;rotatable=0;perimeter=centerPerimeter;snapToPoint=1;strokeColor=#001DBC;rotation=-90;container=0;fontColor=#ffffff;" vertex="1" parent="1">
          <mxGeometry x="2946.67" y="430" width="20" height="20" as="geometry" />
        </mxCell>
        <mxCell id="PeHLGWzFGyEWrabVDmBg-1075" value="" style="verticalLabelPosition=bottom;shadow=0;dashed=0;align=center;html=1;verticalAlign=top;shape=mxgraph.electrical.logic_gates.logic_gate;operation=xor;aspect=fixed;rotation=-90;container=0;" vertex="1" parent="1">
          <mxGeometry x="2630" y="676.67" width="70" height="40" as="geometry" />
        </mxCell>
        <mxCell id="PeHLGWzFGyEWrabVDmBg-1076" value="" style="endArrow=none;html=1;rounded=0;entryX=0;entryY=0.25;entryDx=0;entryDy=0;entryPerimeter=0;" edge="1" parent="1" target="PeHLGWzFGyEWrabVDmBg-1075">
          <mxGeometry width="50" height="50" relative="1" as="geometry">
            <mxPoint x="2550" y="780" as="sourcePoint" />
            <mxPoint x="2600" y="730" as="targetPoint" />
            <Array as="points">
              <mxPoint x="2654.67" y="780" />
            </Array>
          </mxGeometry>
        </mxCell>
        <mxCell id="PeHLGWzFGyEWrabVDmBg-1077" value="" style="endArrow=none;html=1;rounded=0;exitX=0;exitY=0.75;exitDx=0;exitDy=0;exitPerimeter=0;" edge="1" parent="1" source="PeHLGWzFGyEWrabVDmBg-1075">
          <mxGeometry width="50" height="50" relative="1" as="geometry">
            <mxPoint x="2879.67" y="490" as="sourcePoint" />
            <mxPoint x="2926.67" y="440" as="targetPoint" />
            <Array as="points">
              <mxPoint x="2926.67" y="730" />
            </Array>
          </mxGeometry>
        </mxCell>
        <mxCell id="PeHLGWzFGyEWrabVDmBg-1078" value="&lt;font style=&quot;font-size: 13px;&quot;&gt;v_set(5)&lt;/font&gt;" style="text;html=1;align=center;verticalAlign=middle;whiteSpace=wrap;rounded=0;container=0;" vertex="1" parent="1">
          <mxGeometry x="2619.5000000000005" y="660" width="30" height="20" as="geometry" />
        </mxCell>
        <mxCell id="PeHLGWzFGyEWrabVDmBg-1079" value="&lt;font style=&quot;font-size: 13px;&quot;&gt;v_set(5)&lt;/font&gt;" style="text;html=1;align=center;verticalAlign=middle;whiteSpace=wrap;rounded=0;container=0;" vertex="1" parent="1">
          <mxGeometry x="2680.5000000000005" y="160" width="30" height="20" as="geometry" />
        </mxCell>
        <mxCell id="PeHLGWzFGyEWrabVDmBg-1103" value="&lt;font style=&quot;font-size: 13px;&quot;&gt;count&lt;/font&gt;" style="text;html=1;align=center;verticalAlign=middle;whiteSpace=wrap;rounded=0;container=0;" vertex="1" parent="1">
          <mxGeometry x="3050" y="540" width="40" height="20" as="geometry" />
        </mxCell>
      </root>
    </mxGraphModel>
  </diagram>
</mxfile>
